<?xml version="1.0" standalone="no"?>
<!DOCTYPE svg PUBLIC "-//W3C//DTD SVG 20010904//EN"
 "http://www.w3.org/TR/2001/REC-SVG-20010904/DTD/svg10.dtd">
<svg version="1.0" xmlns="http://www.w3.org/2000/svg"
 width="2303.000000pt" height="2290.000000pt" viewBox="0 0 2303.000000 2290.000000"
 preserveAspectRatio="xMidYMid meet">

<g transform="translate(0.000000,2290.000000) scale(0.100000,-0.100000)"
fill="#000000" stroke="none">
<path d="M11265 22888 c-755 -21 -1416 -97 -2115 -244 -966 -203 -1860 -516
-2760 -966 -290 -145 -357 -180 -635 -341 -656 -379 -1321 -863 -1925 -1401
-175 -156 -679 -659 -851 -851 -933 -1036 -1664 -2214 -2176 -3510 -77 -192
-84 -214 -168 -455 -332 -957 -532 -1958 -600 -2991 -16 -245 -35 -769 -28
-781 2 -5 41 -8 87 -8 l83 0 6 303 c53 2467 914 4843 2460 6785 605 761 1332
1466 2108 2044 1690 1259 3640 2008 5734 2202 372 35 530 41 1030 41 500 0
648 -6 1025 -41 1819 -167 3582 -780 5115 -1778 165 -107 434 -292 505 -346
19 -15 91 -69 160 -120 828 -619 1642 -1434 2272 -2275 1417 -1890 2199 -4128
2255 -6447 l6 -278 82 0 c45 0 84 2 86 4 6 6 -8 451 -21 666 -110 1826 -652
3573 -1597 5150 -499 832 -1048 1534 -1748 2236 -427 429 -793 747 -1255 1095
-1876 1409 -4117 2209 -6435 2299 -385 15 -443 15 -700 8z"/>
<path d="M11600 21941 c0 -16 6 -21 28 -21 46 0 103 -20 128 -45 22 -22 24
-32 24 -122 0 -54 -7 -192 -15 -308 -8 -115 -20 -277 -25 -360 -6 -82 -12
-172 -15 -200 -2 -27 -7 -84 -10 -125 -14 -159 -38 -190 -152 -190 -55 0 -63
-2 -63 -19 0 -16 11 -19 103 -25 56 -4 194 -13 307 -21 320 -22 315 -22 315
-6 0 10 -20 18 -58 26 -68 13 -107 40 -121 81 -9 27 3 309 21 477 l6 57 166 0
c180 1 245 11 326 53 79 40 131 91 167 165 30 60 33 75 33 157 0 76 -4 98 -26
145 -47 99 -135 169 -259 209 -99 31 -161 39 -470 61 -157 11 -313 22 -347 26
-59 6 -63 5 -63 -15z m682 -126 c93 -41 131 -110 136 -247 6 -132 -21 -225
-82 -283 -49 -48 -99 -65 -190 -65 l-66 0 0 38 c0 20 9 159 20 307 11 149 20
272 20 274 0 9 131 -11 162 -24z"/>
<path d="M9765 21800 c-108 -18 -544 -95 -596 -106 -20 -4 -26 -10 -22 -23 4
-16 10 -17 46 -9 52 12 109 2 136 -23 24 -23 44 -88 66 -214 9 -49 24 -139 35
-200 36 -210 70 -400 89 -505 38 -205 46 -270 37 -303 -10 -41 -53 -75 -112
-88 -42 -10 -54 -16 -54 -31 0 -14 5 -18 18 -14 9 3 35 8 57 12 22 4 49 8 60
10 11 2 34 6 50 9 219 36 555 101 610 117 180 53 342 169 419 301 28 47 64
134 72 172 39 188 23 355 -48 518 -84 192 -240 328 -432 378 -92 24 -279 23
-431 -1z m238 -99 c74 -32 164 -129 214 -231 77 -155 133 -444 119 -612 -7
-89 -50 -221 -87 -265 -57 -71 -166 -123 -259 -123 -81 0 -82 2 -141 336 -125
706 -158 898 -156 901 2 1 32 7 67 12 90 14 186 6 243 -18z"/>
<path d="M13673 21735 c-30 -43 -279 -371 -558 -738 -82 -109 -165 -218 -182
-242 -57 -78 -144 -164 -187 -185 -23 -11 -59 -20 -79 -20 -30 0 -37 -4 -37
-20 0 -21 2 -22 190 -65 63 -14 142 -33 176 -41 78 -18 96 -18 92 2 -2 9 -29
27 -62 40 -96 39 -114 82 -70 172 30 62 120 182 136 182 5 0 46 -9 91 -19 91
-22 339 -79 375 -87 12 -2 22 -8 22 -12 0 -4 10 -68 23 -142 27 -165 26 -185
-15 -206 -29 -15 -91 -14 -133 2 -7 3 -15 -3 -17 -14 -5 -16 4 -21 66 -35 39
-9 141 -32 226 -52 132 -30 198 -46 358 -82 17 -4 22 -1 22 16 0 11 -5 21 -11
21 -22 0 -70 43 -89 79 -23 45 -49 152 -89 366 -229 1213 -207 1105 -221 1105
-5 0 -17 -11 -27 -25z m-164 -665 c24 -129 45 -245 48 -257 4 -18 1 -21 -14
-18 -10 2 -97 22 -194 44 -97 23 -184 41 -193 41 -10 0 -16 6 -14 13 6 24 312
427 319 419 3 -4 25 -113 48 -242z"/>
<path d="M14693 21474 c-3 -8 -4 -16 -2 -17 2 -1 26 -13 52 -27 97 -51 107
-83 62 -211 -39 -111 -105 -289 -168 -449 -25 -63 -64 -164 -87 -225 -114
-300 -141 -359 -169 -375 -28 -14 -91 -12 -139 4 -36 13 -41 13 -46 -1 -4 -9
-5 -17 -4 -18 6 -5 86 -38 228 -92 80 -30 172 -66 205 -78 238 -91 244 -93
250 -77 6 15 -10 32 -30 32 -24 0 -88 55 -101 85 -15 38 -7 77 46 215 16 41
50 129 76 195 25 66 49 123 53 128 6 6 76 -16 89 -27 3 -3 192 -751 192 -760
0 -9 71 -40 205 -90 66 -25 143 -54 172 -65 48 -19 52 -19 55 -3 2 10 -10 27
-33 43 -52 39 -56 52 -190 578 -21 86 -42 164 -45 175 -5 16 -1 18 42 14 68
-6 161 8 211 32 59 28 125 98 159 166 26 52 29 70 29 154 0 82 -4 103 -26 151
-66 141 -172 209 -549 354 -96 37 -215 83 -265 102 -49 19 -112 44 -140 55
-107 44 -125 49 -132 32z m656 -318 c67 -34 126 -104 141 -167 30 -123 -40
-310 -141 -379 -84 -57 -150 -58 -316 -3 -46 15 -83 33 -83 39 0 11 23 72 120
324 10 25 31 81 48 125 16 44 35 92 40 106 l11 27 65 -24 c37 -13 88 -35 115
-48z"/>
<path d="M8126 21398 c-3 -13 -28 -282 -56 -598 -78 -894 -74 -870 -163 -953
-30 -27 -38 -40 -30 -48 11 -11 49 0 338 101 111 39 116 42 106 58 -6 11 -20
11 -73 1 -53 -10 -70 -9 -94 2 -58 28 -75 109 -58 276 l7 60 81 25 c44 14 153
51 241 81 87 31 160 55 161 54 70 -74 196 -228 201 -245 10 -40 -13 -71 -71
-97 -59 -26 -75 -42 -53 -51 12 -4 370 114 592 195 66 24 73 51 13 50 -24 -1
-60 6 -80 15 -39 17 -148 118 -263 246 -38 41 -91 100 -119 130 -103 111 -324
349 -432 466 -61 65 -130 141 -154 169 -23 27 -53 57 -66 68 -23 18 -23 18
-28 -5z m211 -673 c45 -49 105 -115 133 -145 27 -30 50 -57 50 -60 0 -7 -401
-143 -406 -138 -4 5 36 496 43 518 5 16 17 3 180 -175z"/>
<path d="M16387 20776 c-4 -10 5 -22 26 -35 47 -29 74 -61 82 -99 8 -39 -26
-111 -132 -277 -38 -61 -105 -166 -148 -235 -43 -69 -93 -147 -110 -175 -17
-27 -49 -79 -71 -114 -21 -35 -47 -75 -56 -90 -10 -14 -21 -33 -25 -41 -14
-30 -83 -119 -105 -134 -32 -23 -75 -20 -136 9 -64 29 -58 29 -66 10 -3 -10
15 -27 62 -56 37 -22 104 -64 149 -92 106 -67 273 -172 342 -214 41 -25 58
-30 68 -22 10 9 5 17 -26 39 -57 41 -81 77 -81 120 0 28 20 70 93 191 78 128
148 239 178 282 4 5 24 -1 46 -14 l40 -23 6 -80 c4 -45 14 -225 23 -401 9
-176 17 -320 18 -321 1 -1 86 -53 190 -118 136 -83 192 -113 197 -104 5 8 0
21 -11 33 -48 51 -59 123 -80 515 -6 113 -12 225 -14 249 l-3 43 41 -7 c23 -3
73 -9 111 -12 121 -9 229 46 299 152 50 74 70 150 63 237 -12 146 -100 252
-337 410 -148 98 -590 375 -614 384 -7 3 -16 -2 -19 -10z m509 -379 c165 -105
212 -205 164 -347 -43 -127 -145 -238 -239 -259 -58 -13 -148 10 -234 59 -38
22 -72 40 -77 40 -4 0 -13 7 -20 15 -13 16 3 47 133 252 29 45 81 130 117 187
36 58 70 104 76 102 6 -2 42 -24 80 -49z"/>
<path d="M6698 20760 c-87 -22 -278 -105 -554 -243 -105 -53 -208 -102 -228
-111 -20 -8 -36 -22 -36 -30 0 -20 3 -20 69 3 29 10 61 17 70 16 9 -2 24 -4
34 -4 29 -1 64 -48 111 -145 25 -50 113 -230 196 -401 242 -492 260 -533 260
-575 0 -48 -32 -89 -90 -115 -27 -12 -40 -24 -37 -34 2 -9 9 -15 17 -13 21 5
562 270 660 324 104 57 232 172 293 266 27 41 56 102 72 155 26 81 27 97 22
205 -6 130 -27 212 -83 326 -94 188 -267 335 -449 381 -81 21 -231 18 -327 -5z
m44 -140 c75 -23 170 -86 226 -150 98 -112 191 -279 248 -445 37 -104 39 -116
39 -235 0 -109 -3 -131 -22 -170 -62 -125 -241 -223 -296 -162 -15 16 -118
219 -227 447 -29 61 -111 229 -181 373 -71 145 -129 267 -129 272 0 19 195 87
256 89 12 1 51 -8 86 -19z"/>
<path d="M5618 20147 c-7 -6 -44 -33 -83 -60 -38 -26 -108 -74 -155 -108 -80
-57 -118 -83 -273 -189 -54 -37 -64 -48 -56 -62 8 -16 13 -14 54 13 30 20 61
32 92 34 42 4 49 1 78 -30 31 -33 78 -97 378 -525 56 -80 110 -156 120 -170
90 -129 177 -267 182 -290 5 -21 0 -41 -16 -70 -13 -22 -25 -40 -28 -40 -3 0
-22 -14 -41 -30 -29 -24 -32 -30 -18 -35 17 -7 76 31 343 219 243 170 278 197
266 209 -9 9 -16 8 -29 0 -9 -7 -37 -22 -61 -33 -83 -38 -130 -13 -214 115
-15 22 -44 64 -64 93 -21 28 -65 91 -98 139 -59 85 -77 111 -203 289 -217 308
-232 333 -232 381 0 39 5 50 38 83 20 20 46 41 56 47 20 11 14 33 -9 33 -7 0
-20 -6 -27 -13z"/>
<path d="M11195 19594 c-328 -20 -426 -27 -581 -44 -1486 -165 -2883 -727
-4084 -1643 -282 -216 -515 -421 -811 -717 -261 -260 -421 -437 -618 -683
-817 -1020 -1379 -2219 -1640 -3502 -94 -466 -161 -1102 -161 -1542 l0 -103
85 0 85 0 0 123 c0 271 37 744 81 1046 193 1326 707 2570 1502 3640 891 1197
2102 2133 3479 2687 1835 738 3919 765 5768 74 701 -262 1388 -634 1980 -1073
1502 -1113 2572 -2695 3030 -4482 145 -563 226 -1131 246 -1722 l7 -203 85 0
85 0 -7 198 c-29 817 -162 1563 -415 2322 -204 612 -491 1216 -843 1775 -803
1276 -1947 2312 -3298 2989 -952 476 -1952 754 -3025 841 -177 14 -815 27
-950 19z"/>
<path d="M4708 19472 c-51 -48 -127 -119 -169 -158 -43 -38 -77 -73 -78 -77
-3 -19 32 -18 53 2 28 26 101 50 136 44 43 -6 97 -52 233 -197 73 -77 170
-180 217 -229 83 -87 106 -115 98 -122 -2 -2 -165 21 -363 50 -198 30 -439 66
-535 80 -96 14 -181 27 -188 30 -13 5 -103 -72 -277 -238 -84 -80 -107 -108
-98 -117 8 -9 20 -6 49 14 32 22 50 26 107 26 74 0 99 -9 136 -49 13 -14 51
-55 85 -91 225 -241 336 -360 436 -465 228 -242 248 -295 154 -408 -27 -32
-32 -60 -10 -55 7 2 73 59 146 128 73 69 153 144 178 167 35 32 44 45 35 54
-9 9 -22 4 -55 -20 -64 -46 -132 -52 -190 -18 -24 14 -63 47 -88 74 -47 50
-307 330 -325 349 -5 6 -66 71 -135 144 -147 155 -153 164 -114 156 16 -3 101
-15 189 -26 88 -12 174 -23 190 -26 36 -4 239 -34 275 -39 14 -2 63 -9 110
-15 47 -6 211 -29 365 -50 154 -22 298 -42 321 -45 69 -10 71 11 7 80 -85 93
-266 286 -289 309 -11 12 -54 57 -95 101 -41 44 -126 136 -189 204 -235 252
-257 280 -268 327 -10 45 2 88 36 131 12 15 22 33 22 40 0 32 -26 17 -112 -65z"/>
<path d="M17935 19519 c-160 -16 -310 -90 -429 -213 -144 -150 -219 -312 -233
-506 -20 -286 165 -575 462 -723 177 -88 329 -98 534 -36 138 42 259 128 364
259 125 157 175 307 164 495 -10 169 -58 288 -166 413 -117 134 -252 231 -401
287 -53 20 -209 33 -295 24z m431 -185 c109 -37 186 -122 215 -239 14 -54 0
-156 -33 -240 -60 -154 -298 -450 -453 -565 -108 -80 -240 -127 -323 -116
-140 19 -259 139 -278 279 -8 54 18 183 50 252 104 227 351 501 535 595 101
51 202 63 287 34z"/>
<path d="M3455 18251 c-131 -172 -263 -367 -255 -376 7 -8 25 3 61 37 79 74
152 67 274 -29 28 -21 82 -61 120 -88 39 -27 75 -53 80 -58 6 -4 60 -44 120
-88 232 -169 210 -151 295 -234 82 -79 114 -145 114 -240 1 -92 -23 -157 -82
-230 -65 -80 -135 -118 -216 -119 -92 0 -122 17 -496 289 -270 196 -441 327
-456 350 -24 36 -13 97 26 152 23 32 29 48 22 55 -15 15 -34 -2 -77 -66 -19
-28 -72 -103 -119 -166 -46 -63 -108 -148 -138 -188 -29 -40 -65 -89 -80 -109
-50 -65 -28 -95 24 -34 59 69 110 77 184 29 42 -28 65 -44 119 -86 6 -4 39
-28 75 -53 36 -25 151 -108 255 -184 246 -180 293 -209 371 -235 135 -45 272
-19 402 79 42 31 153 168 198 245 97 164 97 375 0 502 -37 49 -161 158 -271
239 -44 32 -114 83 -155 114 -41 30 -93 68 -115 83 -162 115 -254 191 -270
224 -22 46 -16 115 14 155 24 32 26 45 8 52 -6 2 -21 -7 -32 -22z"/>
<path d="M10627 16940 l-863 -1295 -2412 -3 -2412 -2 0 -140 0 -140 2490 0
2490 0 862 1295 863 1294 1488 1 1487 0 0 -810 0 -810 -1050 0 -1050 0 0
-1515 0 -1515 1050 0 1050 0 0 -555 0 -555 -2845 0 -2845 0 0 -145 0 -145
2856 0 2855 0 202 -109 c111 -60 459 -247 772 -416 314 -169 863 -465 1220
-657 358 -193 668 -360 690 -373 l40 -23 68 125 c37 69 66 127 64 129 -1 2
-165 90 -362 197 -198 107 -713 384 -1145 617 -432 233 -895 483 -1030 556
l-245 132 -3 611 -2 611 965 0 965 0 -2 1500 -3 1500 -960 3 -960 2 -5 963 -5
962 -1707 3 -1708 2 -863 -1295z m4043 -994 l0 -94 -37 -6 c-220 -39 -411
-181 -481 -358 -56 -142 -62 -200 -62 -588 l0 -348 -34 -22 c-58 -35 -133
-125 -151 -181 -64 -192 129 -370 486 -448 432 -93 954 -14 1160 177 72 66
102 126 102 201 0 91 -56 179 -160 250 l-32 21 -3 398 -3 397 -28 78 c-15 42
-38 95 -52 117 -14 22 -25 44 -25 49 0 5 -34 40 -75 79 -88 82 -200 142 -317
168 l-78 18 0 83 0 83 835 0 835 0 0 -1215 0 -1215 -1875 0 -1875 0 0 1225 0
1225 935 0 935 0 0 -94z m286 -319 c116 -42 213 -117 254 -196 44 -88 50 -142
50 -475 0 -246 -3 -316 -12 -316 -7 0 -56 9 -108 20 -228 47 -516 47 -734 0
-50 -11 -94 -20 -99 -20 -4 0 -7 161 -5 358 l3 357 27 55 c47 97 153 182 271
220 91 29 268 28 353 -3z m-198 -1179 c-3 -37 -7 -45 -39 -61 -88 -46 -96
-169 -15 -222 37 -24 78 -32 121 -23 54 11 93 44 109 93 18 51 2 96 -49 140
-30 26 -35 36 -35 74 l0 44 78 -7 c244 -22 489 -111 516 -189 15 -41 -17 -75
-115 -124 -132 -67 -263 -93 -491 -100 -119 -4 -222 -1 -283 6 -243 31 -455
125 -455 201 0 68 189 159 390 189 41 6 86 13 100 15 14 2 58 4 98 5 l73 1 -3
-42z"/>
<path d="M19107 18175 c-193 -40 -422 -216 -519 -400 -52 -99 -70 -172 -75
-305 -5 -109 -3 -135 17 -205 12 -43 31 -95 41 -114 17 -31 17 -37 3 -70 -76
-175 -79 -346 -11 -500 47 -107 165 -250 265 -322 41 -30 44 -30 68 -14 l25
16 -31 30 c-47 45 -104 139 -125 204 -23 76 -16 179 18 256 28 64 40 75 59 56
18 -18 80 -55 139 -83 148 -72 387 -74 568 -5 83 31 214 125 290 208 77 83
148 212 173 313 19 82 17 291 -5 363 -77 254 -281 470 -523 552 -99 33 -270
43 -377 20z m543 -227 c125 -39 214 -167 212 -308 -2 -161 -141 -350 -400
-548 -153 -117 -277 -178 -413 -202 -177 -32 -336 83 -370 267 -29 158 97 363
355 571 243 198 448 271 616 220z"/>
<path d="M20541 16930 c-12 -7 -11 -15 3 -52 22 -53 23 -101 3 -132 -19 -29
-72 -58 -447 -249 -162 -82 -325 -167 -362 -188 -97 -57 -163 -121 -199 -195
-28 -56 -33 -78 -37 -163 -5 -111 6 -162 65 -290 97 -210 227 -321 413 -352
107 -18 200 14 545 189 481 243 491 247 549 231 37 -10 106 -72 106 -95 0 -18
13 -24 30 -14 10 6 -8 50 -85 202 -54 106 -103 203 -109 215 -11 24 -31 30
-41 13 -3 -5 1 -22 8 -37 40 -78 27 -148 -37 -197 -51 -39 -668 -351 -769
-388 -112 -43 -207 -44 -289 -6 -155 72 -246 267 -192 410 23 60 88 116 218
186 147 79 745 378 774 387 56 17 113 -21 148 -96 18 -41 21 -43 41 -31 8 5 4
23 -16 62 -27 55 -303 593 -305 597 -1 1 -8 -2 -15 -7z"/>
<path d="M2382 16788 c-7 -7 -12 -15 -12 -20 0 -4 -23 -56 -51 -115 -192 -404
-179 -366 -138 -411 19 -19 39 -41 44 -48 6 -6 39 -43 75 -81 36 -38 102 -109
146 -158 45 -50 95 -104 110 -120 36 -38 197 -214 242 -264 l32 -36 -32 -3
c-33 -4 -584 12 -850 24 l-137 7 -71 -149 c-40 -82 -83 -176 -97 -209 -14 -33
-38 -85 -54 -117 -25 -50 -27 -57 -11 -63 9 -3 18 -3 19 2 27 75 99 138 149
130 32 -5 227 -91 457 -201 75 -36 139 -66 141 -66 4 0 131 -60 326 -153 170
-81 204 -128 175 -242 -13 -49 -6 -80 14 -59 12 12 201 419 201 432 0 5 -6 12
-13 15 -7 3 -25 -16 -42 -45 -34 -56 -84 -88 -139 -88 -37 0 -103 26 -259 102
-54 26 -100 48 -102 48 -3 0 -67 30 -143 66 -134 65 -360 170 -474 221 -32 14
-58 30 -58 36 0 9 104 8 540 -8 560 -21 833 -26 843 -16 10 10 -18 48 -64 91
-3 3 -31 34 -63 70 -32 36 -79 88 -105 115 -26 28 -85 93 -131 145 -47 52 -88
97 -91 100 -6 6 -104 114 -157 175 -20 22 -61 67 -91 100 -166 179 -231 255
-217 255 3 0 58 -25 121 -55 64 -30 118 -55 120 -55 2 0 57 -25 122 -56 65
-31 168 -79 228 -106 313 -143 471 -225 483 -252 17 -38 15 -78 -7 -136 -17
-44 -17 -52 -5 -57 18 -7 10 -19 71 112 54 117 93 199 192 412 33 72 61 136
61 141 0 5 -6 12 -14 15 -9 4 -21 -12 -37 -44 -26 -56 -70 -89 -117 -89 -45 0
-371 146 -949 426 -192 93 -207 115 -163 230 22 59 14 84 -18 52z"/>
<path d="M21255 15410 c-3 -5 2 -35 11 -65 16 -50 17 -60 4 -98 -13 -35 -23
-46 -70 -69 -48 -23 -349 -148 -480 -198 -25 -10 -119 -48 -210 -85 -207 -85
-281 -113 -346 -132 -73 -22 -112 -2 -151 75 -15 31 -29 59 -30 60 -1 2 -8 0
-16 -5 -15 -8 -7 -29 253 -670 10 -23 25 -30 34 -15 3 5 -1 26 -9 48 -18 51
-19 98 0 134 20 38 60 57 495 230 52 20 210 84 350 141 154 62 269 103 290
103 50 1 93 -34 119 -94 21 -50 37 -62 47 -37 2 7 -20 74 -50 148 -29 74 -79
197 -110 274 -113 282 -114 283 -131 255z"/>
<path d="M1817 14490 c-186 -32 -350 -131 -453 -276 -131 -184 -193 -464 -149
-676 45 -214 219 -418 430 -502 141 -56 336 -73 485 -40 89 19 222 83 290 140
164 136 273 387 274 629 0 129 -13 190 -65 304 -103 223 -329 383 -594 421
-81 11 -150 11 -218 0z m113 -361 c257 -55 416 -117 530 -208 65 -51 89 -80
116 -137 34 -72 39 -128 20 -205 -32 -124 -104 -199 -224 -235 -241 -71 -721
33 -937 204 -108 84 -164 199 -150 306 10 74 58 168 107 210 107 92 301 115
538 65z"/>
<path d="M20253 14112 c-9 -6 2 -65 43 -232 31 -124 57 -226 58 -228 2 -1 10
0 18 3 12 5 14 21 10 80 -4 72 -4 75 26 104 18 19 42 32 59 33 53 2 128 -3
193 -15 l64 -12 13 -45 c7 -25 34 -130 59 -235 26 -104 49 -195 51 -202 4 -9
-93 -87 -214 -171 -66 -46 -117 -20 -143 73 -9 32 -18 45 -31 45 -22 0 -28 30
70 -360 61 -245 79 -305 94 -308 14 -3 17 4 17 38 0 22 6 53 14 68 22 43 129
138 304 272 90 69 212 163 271 210 59 47 160 126 225 175 66 50 137 104 160
122 23 17 82 62 131 101 50 38 90 75 90 83 0 12 -228 57 -695 138 -30 5 -95
17 -145 26 -49 9 -142 25 -205 36 -363 64 -440 90 -487 164 -30 47 -32 49 -50
37z m802 -328 c116 -20 224 -38 240 -41 38 -6 41 -9 26 -27 -17 -20 -402 -309
-406 -304 -8 8 -103 403 -99 410 3 4 10 5 17 3 7 -3 107 -21 222 -41z"/>
<path d="M1003 12723 c-25 -9 -13 -33 26 -53 28 -14 41 -28 46 -50 8 -34 3
-52 -37 -140 -16 -36 -33 -74 -38 -85 -49 -109 -73 -313 -51 -440 47 -266 215
-479 465 -590 129 -57 330 -71 472 -34 231 60 387 197 477 419 51 125 62 185
61 355 0 130 -3 159 -23 215 -25 70 -74 160 -124 227 -29 37 -38 43 -85 49
-29 3 -55 4 -57 2 -3 -2 4 -14 16 -26 126 -136 189 -276 189 -421 0 -200 -87
-340 -252 -409 -104 -43 -182 -56 -348 -55 -431 1 -700 192 -700 497 0 220
137 385 370 446 49 13 66 22 68 37 2 12 -3 19 -15 19 -38 1 -429 35 -438 38
-5 2 -16 1 -22 -1z"/>
<path d="M21973 12693 c-8 -3 -13 -25 -13 -60 0 -70 -24 -121 -65 -138 -17 -8
-161 -25 -320 -39 -160 -15 -395 -36 -524 -47 -129 -12 -268 -19 -309 -17 -68
3 -76 6 -98 33 -12 16 -26 47 -29 69 -10 63 -15 76 -31 76 -8 0 -14 -3 -14 -7
0 -5 16 -186 35 -403 19 -217 42 -483 51 -590 21 -269 19 -256 55 -264 18 -3
130 -6 250 -6 206 0 219 1 219 18 0 15 -13 22 -57 32 -207 45 -327 124 -372
244 -38 103 -57 360 -30 404 26 41 40 44 419 77 157 14 337 29 400 35 347 31
369 32 403 15 43 -20 67 -63 74 -128 6 -57 12 -70 30 -59 8 5 3 103 -22 380
-18 205 -34 374 -36 376 -2 2 -10 1 -16 -1z"/>
<path d="M1704 11126 c10 -69 46 -389 46 -403 0 -6 37 -25 83 -41 45 -17 105
-40 132 -50 122 -48 694 -265 733 -279 23 -8 42 -19 42 -23 0 -10 13 -8 -508
-80 l-433 -60 -427 105 c-522 128 -1159 284 -1189 290 -19 4 -23 1 -23 -17 0
-25 17 -192 25 -248 5 -33 98 -861 181 -1610 20 -179 39 -328 43 -332 3 -4
341 161 751 366 410 206 759 376 775 380 17 3 215 26 440 51 226 25 429 48
453 51 25 4 42 2 42 -4 0 -5 -53 -45 -117 -89 -65 -44 -185 -125 -268 -181
-82 -56 -156 -106 -162 -112 -7 -6 -77 -53 -155 -105 -79 -52 -153 -102 -165
-112 l-22 -18 24 -215 c14 -118 25 -221 25 -228 0 -9 18 -1 48 21 26 18 160
110 297 202 138 93 295 200 350 237 55 38 195 132 311 210 l210 142 -13 104
c-7 58 -15 146 -18 196 -3 50 -8 98 -10 106 -4 14 -27 195 -39 308 -4 28 -3
52 1 51 5 0 23 -32 42 -70 98 -199 346 -296 557 -218 156 58 278 221 291 389
14 184 -83 352 -251 436 -175 86 -373 55 -511 -81 -60 -59 -121 -172 -128
-238 -7 -65 -26 -65 -32 0 -3 21 -9 80 -14 132 -6 52 -9 97 -6 100 2 4 -1 40
-6 81 -6 41 -18 144 -27 229 l-17 153 -130 50 c-72 27 -170 64 -220 83 -49 18
-198 74 -330 125 -132 50 -332 127 -445 170 -113 43 -213 81 -224 85 -16 7
-17 4 -12 -39z"/>
<path d="M21170 11095 c-213 -69 -845 -268 -1005 -316 -55 -17 -115 -36 -134
-42 l-35 -12 -27 -140 c-16 -77 -35 -174 -43 -215 -8 -41 -26 -142 -41 -225
-14 -82 -28 -156 -31 -164 -7 -21 -16 -7 -21 36 -32 275 -293 457 -558 388
-203 -53 -339 -228 -338 -435 1 -181 96 -329 263 -409 72 -35 79 -36 185 -36
106 0 113 1 185 36 95 46 155 100 200 177 34 59 50 76 50 50 -1 -7 -12 -69
-25 -138 -13 -69 -42 -222 -65 -340 -22 -118 -42 -220 -45 -227 -4 -11 164
-144 680 -537 116 -88 215 -166 220 -172 12 -13 255 -196 255 -192 0 2 18 102
40 223 l41 220 -33 28 c-28 23 -402 313 -682 527 -115 88 -129 100 -124 105 2
3 193 -29 424 -71 l419 -76 130 -63 c573 -277 1438 -685 1444 -680 2 2 18 86
36 187 18 101 45 247 61 326 17 88 24 146 18 151 -5 5 -153 77 -329 159 -495
232 -756 359 -753 368 2 4 23 9 48 11 430 29 1149 89 1155 95 3 3 25 118 50
258 25 139 52 284 60 323 8 39 11 74 7 78 -8 8 -704 -46 -1287 -99 -275 -25
-425 -35 -455 -30 -365 64 -823 148 -827 152 -4 3 -4 8 -2 11 3 2 234 77 514
165 280 89 511 163 513 165 4 4 82 421 82 437 0 13 -18 9 -220 -57z"/>
<path d="M6360 9804 c-60 -26 -156 -97 -181 -134 -74 -109 -84 -257 -24 -336
87 -114 259 -75 270 61 4 50 -23 100 -65 123 -24 12 -88 11 -122 -3 -23 -9
-31 25 -18 77 17 61 79 139 134 168 28 15 46 32 46 42 0 10 -1 18 -2 17 -2 0
-19 -7 -38 -15z"/>
<path d="M6732 9787 c-160 -78 -240 -230 -202 -386 22 -92 108 -151 193 -131
120 27 147 189 42 246 -31 17 -85 16 -127 -1 -15 -6 -18 -2 -18 27 0 85 65
184 145 222 32 16 51 41 37 50 -4 2 -35 -10 -70 -27z"/>
<path d="M7238 9807 c-137 -39 -228 -153 -236 -299 -4 -70 -2 -83 25 -140 50
-103 118 -158 347 -277 138 -72 162 -89 199 -143 35 -52 36 -116 4 -172 -30
-54 -84 -80 -174 -84 -64 -4 -80 -1 -137 26 -36 17 -84 50 -108 74 -49 49
-105 149 -122 216 -7 25 -17 47 -24 50 -8 2 -12 -54 -14 -212 -2 -158 0 -216
9 -216 6 0 27 16 46 35 19 19 44 35 54 35 11 0 60 -14 109 -32 79 -28 101 -32
194 -32 98 0 110 2 171 32 72 35 143 102 181 173 19 37 23 59 23 139 0 86 -3
100 -29 148 -48 87 -122 139 -414 295 -122 64 -165 114 -164 190 2 121 160
187 295 122 103 -48 166 -121 202 -232 9 -28 23 -54 31 -57 11 -4 14 12 14 93
0 151 -11 282 -24 278 -6 -2 -13 -12 -15 -23 -1 -10 -10 -26 -18 -35 -17 -20
-43 -15 -148 26 -84 32 -205 42 -277 22z"/>
<path d="M8443 9728 c-49 -107 -246 -547 -308 -688 -118 -268 -153 -323 -217
-342 -21 -6 -38 -17 -38 -25 0 -10 37 -13 185 -13 151 0 185 3 185 14 0 9 -18
16 -55 21 -65 8 -88 32 -88 94 0 34 42 146 66 179 8 9 57 12 211 10 l200 -3
40 -89 c21 -50 41 -109 44 -131 4 -38 2 -43 -24 -53 -16 -6 -44 -13 -63 -14
-19 -2 -36 -9 -39 -15 -3 -10 56 -13 273 -13 211 0 276 3 273 12 -3 7 -18 16
-35 20 -59 15 -100 86 -241 413 -33 77 -78 181 -100 230 -22 50 -66 149 -97
220 -98 222 -118 265 -124 265 -4 0 -25 -42 -48 -92z m14 -463 c14 -33 37 -87
53 -120 15 -33 30 -70 34 -83 l7 -22 -170 0 c-94 0 -171 2 -171 5 0 5 159 365
167 378 5 9 34 -48 80 -158z"/>
<path d="M15976 9794 c-99 -24 -178 -68 -253 -142 -119 -118 -173 -251 -173
-427 0 -175 55 -314 170 -427 119 -116 265 -169 455 -163 183 5 323 67 426
188 107 127 149 239 149 398 -1 188 -46 304 -165 425 -80 81 -161 126 -270
149 -87 18 -261 18 -339 -1z m261 -49 c35 -10 64 -29 92 -58 89 -92 122 -216
122 -462 0 -229 -35 -369 -115 -453 -91 -97 -243 -108 -345 -24 -48 39 -97
133 -122 232 -22 85 -19 426 4 510 58 214 190 307 364 255z"/>
<path d="M9134 9789 c-9 -15 4 -26 30 -26 32 0 86 -34 114 -72 22 -30 22 -31
22 -463 0 -400 -2 -436 -19 -474 -19 -43 -49 -61 -109 -67 -18 -1 -32 -7 -32
-12 0 -13 400 -19 400 -6 0 6 -17 13 -37 16 -57 9 -103 35 -121 69 -15 27 -17
79 -20 424 -2 215 0 392 3 392 4 0 15 -10 26 -22 42 -50 216 -262 239 -293 22
-29 168 -209 260 -321 19 -23 57 -71 85 -106 27 -35 57 -71 66 -81 10 -11 35
-41 56 -68 21 -26 43 -48 50 -49 9 0 13 122 15 523 3 595 1 576 81 598 23 6
48 13 55 15 8 2 12 10 10 17 -7 19 -368 21 -368 1 0 -7 16 -16 38 -20 59 -10
100 -40 112 -82 5 -21 10 -155 10 -311 0 -245 -2 -272 -15 -261 -9 7 -53 60
-98 118 -45 58 -140 177 -211 266 -70 89 -154 194 -186 233 l-58 73 -196 -1
c-108 -1 -199 -5 -202 -10z"/>
<path d="M10835 9790 c-10 -16 -2 -21 46 -26 111 -13 109 -3 108 -540 0 -479
-2 -497 -50 -521 -13 -7 -42 -14 -63 -15 -22 -2 -41 -9 -44 -15 -3 -10 59 -13
288 -13 229 0 291 3 288 13 -3 6 -27 15 -54 18 -27 3 -57 9 -66 13 -32 14 -39
73 -36 276 l3 195 85 3 c132 4 209 19 277 52 106 52 163 147 163 268 0 141
-102 243 -280 282 -77 16 -656 25 -665 10z m543 -72 c45 -13 89 -53 109 -97
25 -54 24 -224 -1 -271 -38 -73 -89 -105 -180 -116 l-56 -7 0 256 0 257 48 -6
c26 -3 62 -10 80 -16z"/>
<path d="M11876 9793 c-13 -14 -5 -23 22 -23 51 0 102 -20 120 -48 16 -24 17
-66 17 -492 0 -360 -3 -470 -13 -488 -19 -33 -51 -50 -101 -55 -25 -2 -47 -9
-49 -15 -3 -9 120 -12 491 -12 l494 0 22 163 c12 89 23 169 24 177 1 8 -4 15
-12 15 -8 0 -22 -23 -32 -53 -58 -170 -186 -246 -403 -240 -154 4 -149 -5
-152 269 l-3 211 58 -4 c39 -3 68 -11 90 -27 38 -27 87 -122 97 -188 4 -27 11
-43 20 -43 12 0 14 51 14 300 0 255 -2 299 -14 294 -8 -3 -18 -24 -21 -47 -17
-97 -61 -174 -115 -202 -31 -15 -103 -25 -118 -16 -8 5 -11 77 -9 231 l2 225
124 3 c153 3 214 -12 275 -68 30 -28 48 -57 64 -102 12 -35 22 -71 22 -80 0
-10 7 -18 15 -18 12 0 15 29 17 166 2 91 1 168 -1 170 -7 6 -938 4 -945 -3z"/>
<path d="M13017 9793 c-15 -14 -5 -21 39 -28 63 -9 90 -23 103 -52 8 -16 11
-171 11 -494 l0 -471 -29 -29 c-20 -19 -41 -30 -63 -31 -18 0 -39 -2 -47 -2
-8 -1 -16 -7 -19 -14 -3 -11 58 -13 344 -9 330 4 353 5 419 27 103 33 163 68
225 130 61 61 109 144 136 235 25 82 25 257 0 340 -75 252 -239 372 -540 395
-139 11 -569 13 -579 3z m603 -79 c62 -18 90 -38 142 -107 143 -187 126 -671
-29 -819 -42 -40 -115 -69 -177 -69 -73 -1 -92 7 -105 43 -11 31 -17 959 -6
970 10 9 120 -2 175 -18z"/>
<path d="M14268 9794 c-16 -15 -7 -22 35 -29 65 -10 98 -26 108 -52 12 -32 12
-944 0 -976 -11 -29 -30 -38 -94 -46 -26 -3 -49 -10 -50 -16 -1 -6 102 -11
291 -13 233 -2 293 0 290 10 -3 7 -28 15 -56 18 -36 4 -59 13 -74 28 -22 22
-23 30 -26 242 l-3 220 39 0 c38 0 39 -1 148 -156 60 -85 131 -185 157 -222
26 -37 59 -84 73 -104 l24 -38 180 0 c147 0 180 3 180 14 0 8 -15 17 -33 20
-44 8 -62 29 -206 231 -66 94 -137 192 -156 219 -38 53 -38 55 -8 61 36 6 107
46 141 79 48 44 74 101 80 171 13 169 -93 293 -279 325 -74 13 -750 25 -761
14z m625 -75 c91 -25 139 -105 140 -234 1 -175 -75 -245 -265 -245 l-78 0 0
245 0 245 83 0 c45 0 99 -5 120 -11z"/>
<path d="M10145 8338 c-3 -7 -25 -73 -49 -145 l-45 -133 34 0 c28 0 43 11 96
66 35 37 80 83 100 103 19 20 52 55 73 79 l38 42 -121 0 c-88 0 -123 -3 -126
-12z"/>
<path d="M3395 8213 c-27 -1 -156 -9 -285 -18 -506 -32 -573 -36 -805 -50
-132 -8 -248 -15 -257 -15 -26 0 -23 -8 25 -86 24 -38 76 -124 116 -192 l73
-122 62 5 c33 3 174 12 311 20 372 23 553 34 623 41 36 3 62 2 62 -4 0 -8
-244 -158 -600 -368 -63 -37 -122 -73 -130 -80 -8 -6 -179 -55 -380 -108 -201
-52 -410 -108 -465 -124 -55 -16 -167 -48 -250 -71 -82 -24 -206 -59 -275 -78
-69 -19 -165 -46 -214 -59 -50 -14 -91 -26 -92 -27 -2 -1 10 -23 25 -47 15
-25 94 -156 175 -292 168 -282 134 -256 276 -212 41 12 95 28 120 34 25 6 81
22 125 35 44 13 154 44 245 70 91 25 194 55 230 65 213 62 323 91 328 86 3 -4
-98 -111 -225 -239 -321 -323 -617 -627 -621 -636 -1 -4 11 -27 26 -52 16 -24
75 -123 132 -219 56 -96 122 -205 145 -242 l42 -67 225 227 c124 125 353 360
509 522 156 162 326 338 377 391 84 87 110 106 275 204 100 60 207 124 237
142 270 166 330 198 330 180 0 -8 -24 -53 -52 -99 -29 -47 -82 -133 -118 -192
-36 -59 -95 -156 -131 -214 -36 -59 -81 -133 -100 -164 -19 -31 -60 -100 -92
-152 l-59 -94 56 -94 c30 -51 80 -136 110 -189 31 -53 61 -101 68 -106 10 -8
56 62 196 301 101 171 214 361 251 421 37 61 100 164 140 230 41 66 97 158
124 204 l51 84 -39 71 c-21 39 -53 93 -72 121 -18 27 -33 53 -33 57 0 7 -58
107 -104 178 -55 85 -146 245 -144 252 2 5 24 -11 50 -36 102 -96 258 -141
393 -113 75 16 179 70 226 118 80 82 123 176 134 289 12 132 -32 249 -132 351
-98 101 -253 153 -383 130 -139 -26 -255 -106 -325 -225 -51 -87 -71 -205 -51
-298 7 -34 17 -71 21 -80 15 -38 -16 -16 -36 25 -12 23 -27 49 -34 57 -7 8
-34 55 -60 105 -26 49 -64 116 -85 150 -20 33 -70 115 -109 183 -50 84 -78
121 -89 120 -10 -1 -39 -3 -67 -5z"/>
<path d="M19377 8158 c-13 -22 -135 -251 -281 -530 -37 -71 -72 -128 -78 -128
-6 0 -7 8 -3 18 4 9 9 49 12 88 15 186 -84 354 -258 438 -89 42 -163 53 -259
37 -143 -24 -269 -120 -336 -257 -106 -213 -10 -481 210 -589 70 -35 170 -59
210 -50 12 2 41 7 66 9 64 8 178 67 233 122 26 26 50 44 53 41 7 -6 -78 -175
-121 -242 -31 -48 -217 -399 -223 -420 -1 -6 23 -48 55 -92 32 -45 96 -137
143 -204 47 -67 112 -159 145 -205 33 -46 98 -138 145 -205 47 -67 132 -188
189 -268 56 -80 106 -152 109 -160 3 -7 15 -24 28 -38 l23 -25 32 64 c41 82
114 219 151 285 l29 51 -129 184 c-149 213 -189 269 -252 358 -25 36 -66 94
-91 130 -25 36 -67 96 -94 133 -26 37 -45 70 -43 73 3 2 202 -95 444 -215
l439 -220 150 -168 c83 -92 191 -212 241 -268 50 -55 185 -203 299 -330 114
-126 233 -255 264 -285 31 -30 82 -83 113 -118 l57 -62 34 62 c19 35 64 119
99 188 107 204 192 367 365 695 174 329 175 332 252 495 28 58 102 203 164
323 105 200 113 218 93 221 -11 2 -64 10 -116 16 -52 6 -142 18 -200 26 -58 8
-141 19 -185 24 -124 16 -288 37 -420 54 -66 9 -169 23 -230 31 -60 8 -146 19
-190 25 -44 6 -131 17 -192 25 l-113 13 -312 164 c-172 89 -366 190 -430 223
-65 33 -118 63 -118 68 0 4 248 7 550 7 470 0 550 2 550 14 0 8 6 21 13 28 19
19 179 338 170 338 -4 0 -138 7 -298 15 -159 8 -482 15 -717 15 l-428 0 -13
-22z"/>
<path d="M7777 7940 c-14 -30 -66 -147 -117 -260 -51 -113 -103 -227 -115
-255 -13 -27 -59 -132 -104 -232 -119 -267 -134 -291 -208 -325 -24 -10 -43
-25 -43 -32 0 -11 37 -14 185 -14 176 0 218 7 184 29 -8 5 -31 9 -52 9 -27 0
-45 7 -62 25 -35 34 -33 85 8 182 l34 78 206 3 c143 2 207 -1 207 -8 0 -6 8
-30 19 -53 60 -134 66 -153 62 -194 -2 -19 -56 -43 -96 -43 -24 0 -35 -5 -35
-15 0 -12 39 -14 275 -14 291 0 320 6 232 42 -54 22 -83 69 -173 273 -36 82
-78 177 -94 212 -17 35 -30 65 -30 68 0 3 -8 24 -19 47 -10 23 -53 121 -95
217 -42 96 -92 207 -110 245 l-34 70 -25 -55z m4 -531 c44 -101 79 -186 79
-191 0 -4 -76 -8 -170 -8 -93 0 -170 3 -170 6 0 5 158 361 167 377 8 13 12 6
94 -184z"/>
<path d="M11173 7980 c-98 -20 -186 -89 -233 -182 -26 -52 -30 -73 -30 -138 0
-88 24 -147 87 -215 55 -59 95 -86 239 -161 161 -84 218 -124 249 -178 50 -85
17 -182 -80 -234 -49 -26 -159 -21 -227 10 -108 50 -202 166 -229 286 -9 36
-17 52 -28 52 -14 0 -16 -25 -15 -207 0 -220 5 -240 45 -190 37 48 64 49 179
10 132 -45 267 -42 374 7 55 25 131 101 164 163 23 45 27 64 27 142 0 78 -4
97 -27 140 -48 91 -130 154 -334 258 -199 102 -245 146 -247 231 -2 106 116
176 246 145 59 -14 151 -72 183 -116 31 -42 60 -102 73 -151 7 -25 18 -42 26
-42 12 0 15 16 15 78 0 123 -12 302 -21 302 -4 0 -13 -16 -19 -35 -17 -50 -41
-52 -146 -12 -97 38 -199 52 -271 37z"/>
<path d="M15535 7970 c-51 -25 -78 -69 -77 -126 2 -77 63 -132 134 -121 18 3
42 7 53 9 18 3 20 -2 18 -40 -4 -82 -66 -170 -149 -210 -20 -9 -34 -23 -34
-34 0 -16 4 -16 54 6 154 68 245 202 234 341 -12 139 -129 227 -233 175z"/>
<path d="M15956 7980 c-58 -18 -96 -76 -96 -146 0 -29 8 -44 40 -76 38 -38 43
-40 88 -35 26 2 55 8 65 12 15 6 17 1 17 -34 0 -79 -62 -171 -142 -212 -25
-13 -38 -26 -38 -39 0 -26 3 -26 69 12 114 65 170 126 200 221 27 81 9 200
-37 250 -39 43 -110 63 -166 47z"/>
<path d="M10015 7969 c-142 -21 -263 -95 -356 -219 -61 -82 -94 -164 -109
-270 -41 -299 118 -561 400 -656 70 -24 298 -27 375 -5 149 42 264 131 343
268 65 113 77 159 76 313 -1 120 -4 142 -26 200 -37 94 -67 144 -123 201 -146
148 -335 203 -580 168z m255 -70 c70 -37 127 -124 155 -241 22 -90 31 -348 15
-445 -23 -145 -65 -240 -134 -300 -68 -61 -195 -72 -281 -25 -135 73 -203 310
-175 612 18 201 67 321 155 382 75 51 185 58 265 17z"/>
<path d="M13435 7970 c-178 -27 -335 -148 -419 -323 -84 -175 -67 -424 40
-586 123 -184 305 -270 549 -258 126 7 209 30 295 85 233 148 332 464 228 732
-57 145 -174 262 -318 318 -98 38 -252 51 -375 32z m259 -78 c116 -65 176
-238 176 -504 0 -336 -107 -528 -294 -528 -119 0 -191 45 -244 152 -53 108
-67 190 -66 388 1 198 19 288 74 386 77 134 225 178 354 106z"/>
<path d="M8466 7945 c4 -10 20 -15 46 -15 42 0 76 -14 95 -39 9 -12 12 -135
13 -499 l0 -483 -25 -23 c-16 -15 -44 -26 -75 -30 -34 -5 -50 -11 -50 -21 0
-12 44 -14 285 -14 231 0 285 2 285 13 0 9 -19 16 -51 20 -80 11 -95 33 -104
147 -4 52 -5 148 -3 214 l3 120 135 11 c192 15 286 56 348 149 98 149 43 344
-117 416 -91 41 -175 49 -492 49 -261 0 -298 -2 -293 -15z m572 -69 c66 -35
102 -113 102 -225 0 -98 -22 -163 -68 -199 -44 -35 -104 -55 -152 -50 l-35 3
-3 235 c-1 129 0 241 3 249 7 17 111 9 153 -13z"/>
<path d="M11838 7825 c-2 -74 -1 -143 2 -154 8 -31 26 -12 40 39 13 51 47 107
87 144 31 29 98 46 183 46 l60 0 0 -480 c0 -543 0 -541 -67 -559 -21 -6 -50
-11 -65 -11 -18 0 -28 -5 -28 -15 0 -12 43 -14 295 -14 238 0 295 2 295 13 0
8 -19 15 -52 19 -37 5 -59 14 -78 32 l-25 25 -3 495 -3 495 82 0 c92 0 145
-19 191 -67 23 -25 35 -49 79 -161 20 -50 29 -7 29 139 l0 149 -509 0 -510 0
-3 -135z"/>
<path d="M14270 7947 c0 -8 15 -14 42 -16 58 -3 96 -28 108 -71 6 -21 9 -216
7 -487 -2 -441 -2 -452 -23 -480 -16 -22 -34 -30 -78 -38 -139 -24 -53 -30
444 -30 l505 0 12 100 c6 55 14 129 18 165 3 36 9 80 12 98 5 28 3 33 -12 30
-11 -2 -28 -32 -47 -83 -53 -137 -117 -211 -207 -236 -49 -15 -257 -19 -302
-7 -48 14 -49 27 -49 519 l0 461 29 29 c22 22 40 29 70 30 61 2 64 3 69 17 3
9 -61 12 -297 12 -241 0 -301 -3 -301 -13z"/>
<path d="M5745 6182 c-172 -59 -288 -198 -315 -377 -9 -60 -8 -81 9 -147 19
-73 43 -128 77 -175 44 -62 -23 -7 -189 154 -332 323 -364 353 -372 353 -4 0
-21 -7 -38 -15 -40 -18 -212 -80 -437 -156 -96 -33 -191 -68 -210 -78 -19 -10
-93 -38 -165 -61 -136 -45 -379 -131 -430 -154 -16 -7 -41 -17 -54 -22 -23
-10 -20 -13 65 -90 49 -43 123 -111 164 -151 l75 -72 155 55 c85 31 211 75
280 99 69 24 221 78 339 120 117 41 216 74 218 71 7 -7 -8 -25 -330 -388
l-287 -325 -755 -379 c-415 -208 -754 -382 -753 -385 2 -3 97 -96 212 -205
206 -196 273 -258 770 -723 138 -129 336 -316 440 -415 104 -100 191 -182 195
-183 3 -2 16 21 28 50 75 180 201 477 238 562 24 55 60 141 80 190 20 50 65
155 100 235 34 80 98 228 141 329 l78 185 155 165 c85 91 202 216 260 276 58
61 136 143 173 183 37 41 71 72 76 70 5 -1 -6 -55 -24 -118 -18 -63 -58 -207
-89 -320 -31 -113 -78 -284 -105 -380 -26 -96 -51 -187 -54 -201 -5 -24 10
-42 148 -172 84 -80 158 -147 165 -149 13 -3 31 48 77 212 25 92 87 315 199
720 30 107 71 254 91 325 l36 131 -138 135 c-77 74 -177 171 -224 214 -177
164 -201 187 -196 192 3 3 29 -7 58 -21 222 -109 487 -15 601 213 122 243 -21
556 -285 627 -73 19 -192 17 -253 -4z"/>
<path d="M16995 6066 c-27 -7 -72 -23 -100 -36 -68 -33 -174 -140 -210 -215
-28 -56 -30 -67 -30 -185 0 -123 1 -127 34 -195 45 -91 125 -171 216 -216 68
-33 73 -34 191 -34 l122 0 81 41 c45 23 81 39 81 35 0 -3 -121 -125 -270 -270
-148 -145 -270 -271 -270 -280 0 -15 214 -689 387 -1216 25 -77 46 -146 46
-153 0 -7 3 -11 6 -10 4 2 78 76 165 165 l158 163 -161 501 c-89 276 -159 504
-156 507 3 3 146 -134 318 -306 l312 -312 128 -230 c115 -207 502 -881 659
-1147 33 -57 63 -103 67 -103 10 0 425 421 449 456 l21 31 -280 484 c-312 538
-324 559 -310 559 6 0 63 -31 129 -69 112 -66 347 -201 422 -243 19 -11 108
-64 198 -117 89 -53 195 -113 234 -134 l72 -38 238 238 c131 131 238 240 238
243 0 5 -118 74 -215 126 -33 17 -331 187 -663 378 -332 190 -606 346 -610
346 -12 1 -637 628 -631 634 2 3 122 -31 264 -75 143 -43 289 -88 325 -99 36
-11 153 -47 260 -80 l195 -60 157 162 c87 89 156 163 154 165 -3 3 -529 167
-946 294 -210 65 -299 92 -378 117 l-62 20 -279 -279 c-153 -153 -281 -279
-284 -279 -3 0 9 29 28 65 135 265 -9 582 -296 650 -76 18 -136 18 -204 1z"/>
<path d="M9924 5973 c-17 -44 -15 -38 -93 -211 -34 -73 -61 -135 -61 -137 0
-3 -20 -48 -45 -101 -25 -52 -45 -97 -45 -100 0 -2 -18 -44 -41 -92 -22 -48
-52 -114 -66 -147 -43 -102 -113 -232 -140 -259 -14 -14 -40 -31 -59 -38 -19
-7 -34 -18 -34 -25 0 -10 40 -13 185 -13 150 0 185 3 185 14 0 9 -16 15 -45
18 -104 12 -123 60 -75 189 18 46 36 88 40 92 9 10 401 10 410 0 15 -16 90
-207 90 -229 0 -32 -36 -54 -87 -54 -32 0 -43 -4 -43 -15 0 -13 37 -15 270
-15 233 0 270 2 270 15 0 9 -9 15 -22 15 -12 0 -37 17 -57 38 -42 44 -63 85
-152 292 -37 86 -71 163 -105 237 -13 28 -24 54 -24 57 0 3 -18 44 -40 91 -22
47 -40 88 -40 91 0 2 -15 37 -33 76 -18 40 -51 112 -72 161 -22 48 -43 87 -48
87 -4 0 -15 -17 -23 -37z m6 -548 c51 -120 73 -182 66 -187 -6 -4 -82 -8 -168
-8 -146 0 -158 1 -158 18 0 10 4 22 8 28 5 5 19 34 32 64 52 126 124 270 133
267 5 -1 44 -84 87 -182z"/>
<path d="M11104 5991 c-184 -50 -315 -156 -397 -321 -57 -116 -71 -184 -64
-315 14 -244 160 -428 398 -501 71 -21 210 -32 296 -23 123 12 208 50 310 136
48 41 52 47 49 81 -3 20 -5 39 -5 41 -1 2 -27 -21 -60 -51 -73 -68 -133 -104
-207 -123 -133 -34 -267 -7 -348 71 -86 82 -136 241 -136 432 0 121 12 196 45
283 117 305 520 320 662 24 18 -38 33 -77 33 -87 0 -10 7 -18 15 -18 10 0 15
10 15 28 0 15 1 95 1 177 0 83 0 158 0 168 -2 29 -28 19 -35 -13 -10 -54 -43
-57 -176 -15 -148 47 -285 56 -396 26z"/>
<path d="M13667 5984 c-8 -16 -63 -137 -122 -269 -59 -132 -120 -268 -136
-303 -16 -35 -29 -65 -29 -67 0 -2 -14 -34 -31 -72 -79 -172 -123 -262 -150
-305 -29 -45 -85 -88 -115 -88 -8 0 -14 -7 -14 -15 0 -13 27 -15 185 -15 149
0 185 3 185 14 0 9 -18 15 -52 19 -37 5 -58 13 -70 28 -21 24 -23 80 -5 124 7
17 21 54 32 83 11 29 25 53 32 53 7 1 22 1 33 1 11 0 96 0 188 -1 l168 -1 41
-97 c56 -134 58 -148 31 -173 -12 -11 -37 -21 -55 -21 -52 -2 -56 -3 -60 -16
-4 -10 55 -13 271 -13 224 0 276 3 276 13 0 8 -18 19 -40 26 -46 14 -87 69
-140 192 -18 41 -40 92 -50 114 -56 125 -100 232 -100 242 0 7 -11 37 -25 66
-13 30 -67 152 -120 273 -53 120 -100 223 -105 228 -5 4 -15 -5 -23 -20z m-18
-524 c34 -80 66 -153 71 -162 6 -10 10 -29 10 -42 l0 -24 -165 -2 c-91 0 -165
2 -165 5 0 3 9 25 19 48 11 23 38 85 61 137 78 178 91 203 99 194 5 -5 36 -74
70 -154z"/>
<path d="M8367 5983 c-4 -3 -7 -73 -7 -155 0 -133 2 -149 16 -146 11 2 22 22
30 56 17 64 67 136 113 158 41 20 162 39 196 30 l25 -6 0 -478 c0 -359 -3
-483 -13 -501 -19 -37 -58 -60 -105 -63 -24 -1 -41 -6 -39 -12 2 -7 102 -12
295 -14 244 -2 292 0 292 12 0 9 -14 14 -45 14 -51 1 -93 25 -106 59 -5 14 -9
242 -9 509 l0 484 28 0 c15 -1 60 -5 100 -9 109 -13 153 -52 197 -174 36 -99
46 -82 47 88 l1 150 -505 3 c-277 1 -508 -1 -511 -5z"/>
<path d="M11840 5975 c0 -8 14 -17 35 -21 21 -4 55 -23 83 -49 l47 -43 0 -443
0 -444 -23 -37 c-23 -38 -63 -58 -113 -58 -19 0 -29 -5 -29 -15 0 -13 29 -15
200 -15 171 0 200 2 200 15 0 10 -11 15 -35 15 -48 0 -99 27 -121 64 -18 29
-19 58 -21 424 -2 235 1 392 6 392 5 0 27 -21 48 -47 20 -27 51 -64 68 -84 16
-20 44 -53 61 -75 78 -98 226 -281 241 -299 10 -11 53 -65 97 -120 45 -55 86
-106 93 -113 8 -8 26 -30 41 -50 15 -21 32 -41 38 -47 6 -5 28 -32 49 -58 21
-26 42 -46 47 -45 4 2 9 237 11 523 2 468 4 523 19 551 17 31 51 50 98 56 14
2 26 11 28 21 3 16 -11 17 -182 17 -143 0 -186 -3 -186 -13 0 -7 23 -18 51
-24 109 -26 112 -37 117 -371 3 -167 0 -278 -5 -283 -8 -8 -227 255 -358 430
-11 14 -41 53 -68 86 -27 33 -54 67 -60 75 -7 8 -27 34 -45 58 l-34 42 -199 0
c-167 0 -199 -2 -199 -15z"/>
<path d="M7877 4708 c-36 -4 -85 -22 -128 -44 -274 -144 -336 -486 -128 -707
43 -45 58 -67 46 -67 -8 0 -252 134 -257 140 -3 4 -90 51 -195 105 -104 54
-195 102 -202 107 -13 11 -46 -11 -678 -455 -55 -39 -193 -135 -307 -215 -114
-79 -210 -147 -213 -152 -3 -5 27 -26 67 -46 40 -20 130 -68 200 -106 l127
-69 88 63 c103 74 83 60 304 213 96 65 206 142 244 170 113 83 238 166 242
161 5 -4 -179 -360 -274 -531 -27 -49 -65 -121 -83 -159 -18 -38 -45 -81 -60
-95 -40 -39 -572 -608 -785 -841 -49 -54 -153 -166 -230 -250 -77 -83 -141
-154 -143 -158 -2 -7 155 -93 433 -237 72 -37 136 -72 143 -78 10 -8 22 -2 46
24 52 53 523 562 605 652 117 130 192 207 200 207 5 0 -4 -53 -19 -117 -16
-65 -54 -228 -85 -363 -31 -135 -82 -348 -112 -474 -54 -222 -55 -230 -37
-243 10 -8 82 -46 158 -85 77 -39 204 -105 283 -148 l143 -78 10 39 c5 21 15
58 21 82 6 23 28 119 49 212 38 169 71 311 175 750 70 297 125 549 125 574 0
11 23 61 50 112 28 51 50 94 50 96 0 3 51 100 114 216 63 117 131 247 152 289
21 43 44 80 52 83 11 4 13 -80 11 -535 -2 -324 1 -544 7 -549 5 -5 96 -54 202
-109 l192 -100 1 272 c1 149 2 478 3 731 l1 460 -105 56 c-58 32 -123 68 -145
80 -22 13 -42 24 -45 24 -3 0 -81 41 -175 90 -93 49 -182 96 -197 104 -46 22
-32 29 30 15 152 -36 306 9 420 124 107 108 153 268 119 408 -32 127 -91 215
-188 278 -100 65 -206 90 -322 74z"/>
<path d="M14983 4585 c-183 -41 -323 -190 -356 -380 -31 -180 75 -379 247
-464 105 -51 246 -62 339 -26 9 4 17 3 17 -2 0 -9 -218 -129 -265 -147 -11 -4
-109 -55 -219 -113 l-198 -106 6 -166 c3 -91 8 -382 11 -646 6 -541 11 -650
28 -637 7 5 59 34 117 65 58 31 141 75 185 99 l80 43 -3 535 c-3 598 -8 569
64 428 18 -36 121 -220 229 -408 126 -222 195 -353 195 -371 0 -15 25 -200 56
-411 30 -211 82 -564 114 -786 32 -222 60 -406 63 -408 3 -3 20 2 39 12 32 16
1045 558 1636 874 l292 157 -487 433 c-269 238 -504 447 -523 464 -19 17 -79
71 -134 119 -54 48 -106 98 -116 110 -9 12 -108 193 -220 402 -111 209 -211
394 -222 412 -10 17 -15 34 -10 37 4 2 210 -132 456 -298 l448 -304 91 50 c51
27 143 74 205 106 61 31 112 59 112 62 0 4 -19 17 -42 30 -39 21 -692 459
-1038 696 l-135 92 -185 -97 c-102 -53 -254 -134 -338 -180 -85 -45 -156 -80
-159 -77 -3 3 16 29 42 58 27 29 62 82 78 118 26 54 31 81 35 162 4 80 1 107
-18 163 -71 213 -304 348 -517 300z"/>
<path d="M10050 3959 c-120 -39 -206 -115 -267 -238 -33 -65 -38 -84 -41 -166
-7 -149 30 -247 131 -345 47 -47 131 -100 165 -106 16 -3 27 -12 21 -18 -5 -5
-285 30 -297 38 -4 2 -89 14 -187 25 -99 12 -201 24 -226 27 l-45 6 -98 -143
c-53 -79 -138 -202 -187 -274 -50 -71 -99 -143 -109 -160 -11 -16 -26 -39 -34
-50 -8 -11 -30 -42 -48 -70 -48 -71 -243 -358 -295 -434 -24 -35 -40 -67 -36
-71 4 -5 73 -16 152 -25 79 -9 151 -18 160 -20 9 -2 42 -6 73 -10 l56 -7 39
58 c21 33 40 61 43 64 7 7 48 67 188 275 279 413 342 501 342 471 0 -2 -16
-127 -34 -277 -19 -151 -43 -366 -52 -479 l-18 -205 -74 -145 c-238 -466 -320
-624 -362 -705 -26 -49 -98 -189 -160 -310 -62 -121 -125 -243 -141 -272 l-27
-51 31 -6 c18 -3 325 -41 682 -86 358 -44 841 -104 1075 -133 309 -38 426 -50
428 -41 2 7 -8 58 -22 115 -14 57 -34 147 -46 199 -11 52 -32 140 -45 195 -13
55 -38 161 -55 235 -17 74 -38 162 -45 195 -126 533 -157 677 -156 715 1 25
10 113 21 195 10 83 33 265 50 405 38 315 40 330 50 330 4 0 49 -111 100 -247
51 -137 113 -300 137 -363 24 -63 66 -176 94 -250 27 -74 52 -136 54 -138 5
-5 449 -61 453 -58 2 3 -13 43 -140 381 -33 88 -73 194 -88 235 -15 42 -39
105 -53 140 -34 84 -218 570 -224 591 -3 12 -34 20 -136 33 -73 9 -175 23
-227 30 -52 8 -147 19 -210 25 -63 7 -128 14 -143 17 -31 6 -32 28 -1 30 68 4
164 54 233 123 117 116 166 280 127 426 -67 255 -330 402 -576 324z"/>
<path d="M12767 3924 c-250 -60 -402 -323 -327 -565 32 -104 92 -185 184 -248
50 -34 144 -71 183 -71 37 0 27 -18 -14 -24 -59 -8 -151 -16 -233 -20 -116 -6
-459 -39 -469 -46 -12 -7 -544 -1341 -537 -1347 2 -2 105 6 228 18 l224 23 33
85 c18 47 36 95 41 106 5 11 23 58 40 103 17 46 35 91 39 100 5 10 60 146 122
305 62 158 116 287 121 287 4 0 8 -2 8 -5 0 -10 50 -530 66 -685 13 -125 14
-168 4 -220 -6 -36 -71 -424 -144 -862 -111 -671 -130 -798 -117 -798 57 0
657 63 661 70 3 5 50 274 104 599 55 325 103 591 107 591 4 0 15 -21 24 -47
10 -27 21 -57 26 -68 5 -11 38 -99 73 -195 179 -493 299 -816 305 -821 3 -4
132 6 286 22 385 39 377 38 383 44 6 5 -147 419 -411 1115 -99 261 -184 491
-188 510 -10 41 -79 756 -79 821 0 37 2 41 14 29 7 -8 140 -210 296 -448 155
-238 286 -434 290 -437 5 -3 108 5 230 17 173 17 220 25 216 35 -3 7 -88 138
-188 291 -249 376 -583 886 -596 909 -5 8 -39 8 -137 -2 -71 -7 -164 -16 -205
-19 -100 -7 -377 -35 -417 -42 -48 -7 -40 12 12 29 110 38 201 124 257 244 43
92 51 216 19 310 -43 127 -120 216 -236 273 -100 50 -192 60 -298 34z"/>
<path d="M19239 3033 c-13 -16 -12 -17 4 -4 16 13 21 21 13 21 -2 0 -10 -8
-17 -17z"/>
</g>
</svg>
