<?xml version="1.0" standalone="no"?>
<!DOCTYPE svg PUBLIC "-//W3C//DTD SVG 20010904//EN"
 "http://www.w3.org/TR/2001/REC-SVG-20010904/DTD/svg10.dtd">
<svg version="1.0" xmlns="http://www.w3.org/2000/svg"
 width="3704.000000pt" height="1511.000000pt" viewBox="0 0 3704.000000 1511.000000"
 preserveAspectRatio="xMidYMid meet">

<g transform="translate(0.000000,1511.000000) scale(0.100000,-0.100000)"
fill="#000000" stroke="none">
<path d="M30200 12672 c-33 -5 -67 -37 -80 -77 -8 -25 -18 -34 -41 -39 -17 -3
-48 -23 -69 -45 -47 -47 -95 -65 -158 -57 -155 19 -196 18 -253 -3 -70 -27
-129 -77 -214 -184 -77 -97 -123 -136 -188 -158 -73 -25 -155 -131 -172 -223
-4 -20 -19 -51 -33 -67 l-25 -30 -92 7 c-234 17 -347 -57 -391 -255 -14 -60
-15 -101 -10 -205 10 -196 15 -213 74 -266 28 -25 53 -55 57 -67 5 -20 3 -23
-19 -23 -14 0 -26 5 -26 10 0 6 -11 10 -25 10 -14 0 -25 5 -25 10 0 6 -11 10
-25 10 -14 0 -25 6 -25 13 0 7 -9 19 -20 27 -11 8 -20 20 -20 27 0 7 -6 13
-13 13 -7 0 -19 9 -27 20 -8 11 -20 20 -27 20 -7 0 -13 7 -13 15 0 8 -9 15
-20 15 -11 0 -20 5 -20 10 0 6 -7 10 -15 10 -8 0 -15 5 -15 11 0 17 -27 39
-49 39 -12 0 -21 5 -21 10 0 6 -11 10 -25 10 -16 0 -25 6 -25 15 0 9 -9 15
-25 15 -14 0 -25 5 -25 10 0 6 -20 10 -45 10 -33 0 -45 4 -45 15 0 13 -24 15
-155 15 -97 0 -155 4 -155 10 0 6 -67 10 -180 10 -113 0 -180 -4 -180 -10 0
-6 -75 -10 -205 -10 -176 0 -205 -2 -205 -15 0 -13 -29 -15 -205 -15 -130 0
-205 -4 -205 -10 0 -6 -35 -10 -85 -10 -69 0 -85 -3 -85 -15 0 -12 -14 -15
-70 -15 -40 0 -70 -4 -70 -10 0 -6 -35 -10 -85 -10 -50 0 -85 -4 -85 -10 0 -6
-30 -10 -70 -10 -56 0 -70 -3 -70 -15 0 -12 -13 -15 -60 -15 -33 0 -60 -4 -60
-10 0 -6 -27 -10 -60 -10 -47 0 -60 -3 -60 -15 0 -11 -11 -15 -40 -15 -22 0
-40 -4 -40 -10 0 -5 -20 -10 -45 -10 -25 0 -45 -4 -45 -10 0 -5 -22 -10 -50
-10 -38 0 -50 -4 -50 -15 0 -11 -12 -15 -45 -15 -25 0 -45 -4 -45 -10 0 -5
-22 -10 -50 -10 -38 0 -50 -4 -50 -15 0 -11 -12 -15 -50 -15 -27 0 -50 -4 -50
-10 0 -5 -20 -10 -45 -10 -25 0 -45 -4 -45 -10 0 -5 -16 -10 -35 -10 -24 0
-35 -5 -35 -15 0 -11 -12 -15 -50 -15 -27 0 -50 -4 -50 -10 0 -5 -16 -10 -35
-10 -24 0 -35 -5 -35 -15 0 -11 -12 -15 -50 -15 -27 0 -50 -4 -50 -10 0 -5
-16 -10 -35 -10 -19 0 -35 -4 -35 -10 0 -5 -11 -10 -25 -10 -16 0 -25 -6 -25
-15 0 -9 -9 -15 -25 -15 -14 0 -25 -4 -25 -10 0 -5 -9 -10 -20 -10 -11 0 -20
-7 -20 -15 0 -9 -9 -15 -25 -15 -14 0 -25 -4 -25 -10 0 -5 -11 -10 -25 -10
-14 0 -25 -4 -25 -10 0 -5 -11 -10 -25 -10 -16 0 -25 -6 -25 -15 0 -9 -9 -15
-25 -15 -14 0 -25 -4 -25 -10 0 -5 -9 -10 -20 -10 -11 0 -20 -7 -20 -15 0 -12
-18 -15 -100 -15 -82 0 -100 3 -100 15 0 10 -10 15 -31 15 -30 0 -59 19 -59
39 0 6 -7 11 -15 11 -8 0 -15 5 -15 10 0 6 -9 10 -20 10 -11 0 -20 5 -20 10 0
6 -7 10 -15 10 -8 0 -15 5 -15 11 0 14 -25 39 -39 39 -6 0 -11 5 -11 10 0 14
-46 60 -60 60 -5 0 -10 5 -10 11 0 17 -27 39 -49 39 -12 0 -21 5 -21 11 0 17
-27 39 -49 39 -12 0 -21 5 -21 10 0 6 -16 10 -35 10 -24 0 -35 5 -35 15 0 12
-13 15 -60 15 -33 0 -60 4 -60 10 0 6 -40 10 -100 10 -60 0 -100 -4 -100 -10
0 -5 -20 -10 -45 -10 -33 0 -45 -4 -45 -15 0 -10 -11 -15 -35 -15 -19 0 -35
-4 -35 -10 0 -5 -11 -10 -25 -10 -14 0 -25 -4 -25 -10 0 -5 -7 -10 -15 -10 -8
0 -15 -7 -15 -15 0 -8 -9 -15 -20 -15 -11 0 -20 -4 -20 -10 0 -5 -7 -10 -15
-10 -8 0 -15 -5 -15 -11 0 -11 -25 -39 -35 -39 -8 0 -35 -27 -35 -35 0 -10
-28 -35 -39 -35 -6 0 -11 -7 -11 -15 0 -8 -4 -15 -10 -15 -5 0 -10 -9 -10 -20
0 -11 -7 -20 -15 -20 -8 0 -15 -7 -15 -15 0 -8 -4 -15 -10 -15 -5 0 -10 -11
-10 -25 0 -14 -4 -25 -10 -25 -5 0 -10 -9 -10 -20 0 -11 -7 -20 -15 -20 -8 0
-15 -7 -15 -15 0 -8 -4 -15 -10 -15 -5 0 -10 -11 -10 -25 0 -16 -6 -25 -15
-25 -10 0 -15 -11 -15 -35 0 -19 -4 -35 -10 -35 -5 0 -10 -11 -10 -25 0 -14
-4 -25 -10 -25 -5 0 -10 -9 -10 -20 0 -11 -7 -20 -15 -20 -9 0 -15 -9 -15 -25
0 -14 -4 -25 -10 -25 -5 0 -10 -16 -10 -35 0 -24 -5 -35 -15 -35 -12 0 -15
-13 -15 -60 0 -33 -4 -60 -10 -60 -6 0 -10 -92 -10 -255 0 -163 4 -255 10
-255 6 0 10 -42 10 -105 0 -87 3 -105 15 -105 13 0 15 -20 15 -120 0 -73 4
-120 10 -120 6 0 10 -75 10 -205 0 -176 2 -205 15 -205 13 0 15 -20 15 -120 0
-73 4 -120 10 -120 6 0 10 -75 10 -205 0 -130 -4 -205 -10 -205 -5 0 -10 -16
-10 -35 0 -24 -5 -35 -15 -35 -8 0 -15 -5 -15 -11 0 -11 -25 -39 -35 -39 -10
0 -35 -28 -35 -39 0 -6 -11 -11 -25 -11 -14 0 -25 -4 -25 -10 0 -6 -42 -10
-105 -10 -63 0 -105 4 -105 10 0 6 -18 10 -40 10 -29 0 -40 4 -40 15 0 8 -9
15 -20 15 -11 0 -20 5 -20 10 0 6 -18 10 -40 10 -22 0 -40 5 -40 10 0 6 -9 10
-20 10 -11 0 -20 7 -20 15 0 11 -11 15 -40 15 -22 0 -40 5 -40 10 0 6 -9 10
-20 10 -11 0 -20 7 -20 15 0 9 -9 15 -25 15 -14 0 -25 5 -25 10 0 6 -16 10
-35 10 -19 0 -35 5 -35 10 0 6 -11 10 -25 10 -16 0 -25 6 -25 15 0 9 -9 15
-21 15 -22 0 -49 22 -49 39 0 6 -11 11 -25 11 -14 0 -25 5 -25 10 0 6 -11 10
-25 10 -14 0 -25 5 -25 10 0 6 -11 10 -25 10 -16 0 -25 6 -25 15 0 9 -9 15
-25 15 -14 0 -25 5 -25 10 0 6 -9 10 -20 10 -11 0 -20 7 -20 15 0 9 -9 15 -25
15 -14 0 -25 5 -25 10 0 6 -11 10 -25 10 -14 0 -25 5 -25 10 0 6 -11 10 -25
10 -16 0 -25 6 -25 15 0 9 -9 15 -25 15 -14 0 -25 5 -25 10 0 6 -9 10 -20 10
-11 0 -20 7 -20 15 0 8 -7 15 -15 15 -8 0 -15 9 -15 20 0 11 -4 20 -10 20 -5
0 -10 7 -10 15 0 8 -7 15 -15 15 -12 0 -15 16 -15 85 0 69 3 85 15 85 8 0 15
9 15 20 0 11 5 20 10 20 6 0 10 11 10 25 0 16 6 25 15 25 9 0 15 9 15 23 0 12
9 29 20 37 11 8 20 20 20 27 0 7 7 13 15 13 9 0 15 9 15 21 0 22 22 49 39 49
6 0 11 11 11 25 0 14 5 25 10 25 6 0 10 9 10 21 0 22 22 49 39 49 6 0 11 11
11 25 0 14 5 25 10 25 6 0 10 11 10 25 0 16 6 25 15 25 8 0 15 9 15 20 0 11 5
20 10 20 6 0 10 11 10 25 0 14 5 25 10 25 6 0 10 11 10 25 0 16 6 25 15 25 9
0 15 9 15 25 0 14 5 25 10 25 6 0 10 16 10 35 0 24 5 35 15 35 10 0 15 11 15
35 0 19 5 35 10 35 6 0 10 23 10 50 0 28 5 50 10 50 6 0 10 50 10 130 0 80 -4
130 -10 130 -5 0 -10 23 -10 50 0 28 -4 50 -10 50 -5 0 -10 16 -10 35 0 24 -5
35 -15 35 -9 0 -15 9 -15 25 0 14 -4 25 -10 25 -5 0 -10 11 -10 25 0 16 -6 25
-15 25 -8 0 -15 9 -15 20 0 11 -4 20 -10 20 -5 0 -10 7 -10 15 0 8 -4 15 -10
15 -5 0 -10 11 -10 25 0 14 -6 25 -13 25 -7 0 -19 9 -27 20 -8 11 -20 20 -27
20 -7 0 -13 11 -13 25 0 14 -4 25 -10 25 -5 0 -10 5 -10 11 0 11 -25 39 -35
39 -10 0 -35 28 -35 39 0 6 -5 11 -11 11 -11 0 -39 25 -39 35 0 8 -27 35 -35
35 -10 0 -35 28 -35 39 0 6 -5 11 -11 11 -11 0 -39 25 -39 35 0 14 -30 35 -49
35 -12 0 -21 5 -21 10 0 6 -11 10 -25 10 -16 0 -25 6 -25 15 0 9 -9 15 -25 15
-14 0 -25 5 -25 10 0 6 -11 10 -25 10 -16 0 -25 6 -25 15 0 10 -11 15 -35 15
-19 0 -35 5 -35 10 0 6 -16 10 -35 10 -19 0 -35 5 -35 10 0 6 -27 10 -60 10
-47 0 -60 3 -60 15 0 12 -16 15 -85 15 -50 0 -85 4 -85 10 0 6 -30 10 -70 10
-56 0 -70 3 -70 15 0 12 -13 15 -60 15 -33 0 -60 4 -60 10 0 6 -32 10 -75 10
-43 0 -75 4 -75 10 0 6 -102 10 -285 10 -183 0 -285 -4 -285 -10 0 -6 -32 -10
-75 -10 -43 0 -75 -4 -75 -10 0 -6 -27 -10 -60 -10 -47 0 -60 -3 -60 -15 0
-12 -14 -15 -70 -15 -40 0 -70 -4 -70 -10 0 -6 -30 -10 -70 -10 -56 0 -70 -3
-70 -15 0 -12 -13 -15 -60 -15 -33 0 -60 -4 -60 -10 0 -6 -27 -10 -60 -10 -33
0 -60 -4 -60 -10 0 -5 -18 -10 -40 -10 -29 0 -40 -4 -40 -15 0 -10 -11 -15
-35 -15 -19 0 -35 -4 -35 -10 0 -5 -16 -10 -35 -10 -24 0 -35 -5 -35 -15 0
-10 -11 -15 -35 -15 -19 0 -35 -4 -35 -10 0 -5 -16 -10 -35 -10 -19 0 -35 -4
-35 -10 0 -5 -11 -10 -25 -10 -16 0 -25 -6 -25 -15 0 -9 -9 -15 -25 -15 -14 0
-25 -4 -25 -10 0 -5 -11 -10 -25 -10 -16 0 -25 -6 -25 -15 0 -9 -9 -15 -25
-15 -14 0 -25 -4 -25 -10 0 -5 -9 -10 -20 -10 -11 0 -20 -4 -20 -10 0 -5 -18
-10 -40 -10 -29 0 -40 -4 -40 -15 0 -8 -9 -15 -20 -15 -11 0 -20 -4 -20 -10 0
-5 -11 -10 -25 -10 -16 0 -25 -6 -25 -15 0 -10 -11 -15 -35 -15 -19 0 -35 -4
-35 -10 0 -5 -11 -10 -25 -10 -14 0 -25 -4 -25 -10 0 -5 -11 -10 -25 -10 -16
0 -25 -6 -25 -15 0 -9 -9 -15 -25 -15 -14 0 -25 -4 -25 -10 0 -5 -11 -10 -25
-10 -16 0 -25 -6 -25 -15 0 -8 -9 -15 -20 -15 -11 0 -20 -4 -20 -10 0 -5 -7
-10 -15 -10 -8 0 -15 -4 -15 -10 0 -5 -11 -10 -25 -10 -14 0 -25 -6 -25 -13 0
-7 -9 -19 -20 -27 -11 -8 -20 -20 -20 -27 0 -7 -11 -13 -25 -13 -14 0 -25 -4
-25 -10 0 -5 -5 -10 -11 -10 -11 0 -39 -25 -39 -35 0 -10 -28 -35 -39 -35 -6
0 -11 -5 -11 -11 0 -11 -25 -39 -35 -39 -10 0 -35 -28 -35 -39 0 -6 -4 -11
-10 -11 -5 0 -10 -11 -10 -25 0 -14 -6 -25 -13 -25 -7 0 -19 -9 -27 -20 -8
-11 -20 -20 -27 -20 -7 0 -13 -11 -13 -25 0 -14 -4 -25 -10 -25 -5 0 -10 -7
-10 -15 0 -8 -4 -15 -10 -15 -5 0 -10 -9 -10 -20 0 -11 -7 -20 -15 -20 -9 0
-15 -9 -15 -25 0 -14 -4 -25 -10 -25 -5 0 -10 -11 -10 -25 0 -16 -6 -25 -15
-25 -10 0 -15 -11 -15 -35 0 -19 -4 -35 -10 -35 -5 0 -10 -11 -10 -25 0 -14
-4 -25 -10 -25 -5 0 -10 -16 -10 -35 0 -24 -5 -35 -15 -35 -11 0 -15 -12 -15
-50 0 -27 -4 -50 -10 -50 -6 0 -10 -30 -10 -70 0 -56 -3 -70 -15 -70 -9 0 -15
-9 -15 -25 0 -16 6 -25 15 -25 12 0 15 -14 15 -70 0 -40 4 -70 10 -70 6 0 10
-18 10 -40 0 -29 4 -40 15 -40 8 0 15 -9 15 -20 0 -11 5 -20 10 -20 6 0 10
-11 10 -25 0 -14 5 -25 10 -25 6 0 10 -7 10 -15 0 -8 7 -15 15 -15 8 0 15 -9
15 -20 0 -11 5 -20 10 -20 6 0 10 -7 10 -15 0 -8 5 -15 11 -15 11 0 39 -25 39
-35 0 -14 30 -35 49 -35 12 0 21 -4 21 -10 0 -5 7 -10 15 -10 8 0 15 -7 15
-15 0 -8 9 -15 20 -15 11 0 20 -4 20 -10 0 -5 11 -10 25 -10 16 0 25 -6 25
-15 0 -10 11 -15 35 -15 19 0 35 -4 35 -10 0 -5 11 -10 25 -10 14 0 25 -4 25
-10 0 -5 11 -10 25 -10 16 0 25 -6 25 -15 0 -9 9 -15 21 -15 22 0 49 -22 49
-39 0 -6 5 -11 11 -11 17 0 39 -27 39 -49 0 -12 5 -21 10 -21 6 0 10 -16 10
-35 0 -24 5 -35 15 -35 12 0 15 -14 15 -70 0 -56 -3 -70 -15 -70 -12 0 -15
-13 -15 -60 0 -33 -4 -60 -10 -60 -5 0 -10 -18 -10 -40 0 -22 -4 -40 -10 -40
-5 0 -10 -16 -10 -35 0 -24 -5 -35 -15 -35 -9 0 -15 -9 -15 -21 0 -22 -22 -49
-39 -49 -6 0 -11 -10 -11 -23 0 -12 -9 -29 -20 -37 -11 -8 -20 -20 -20 -27 0
-7 -5 -13 -11 -13 -17 0 -39 -27 -39 -49 0 -12 -5 -21 -11 -21 -11 0 -39 -25
-39 -35 0 -14 -30 -35 -49 -35 -12 0 -21 -4 -21 -10 0 -5 -7 -10 -15 -10 -8 0
-15 -7 -15 -15 0 -8 -9 -15 -20 -15 -11 0 -20 -4 -20 -10 0 -6 -40 -10 -100
-10 -60 0 -100 4 -100 10 0 6 -9 10 -20 10 -11 0 -20 7 -20 15 0 8 -6 15 -13
15 -7 0 -19 9 -27 20 -8 11 -20 20 -27 20 -7 0 -13 6 -13 13 0 7 -9 19 -20 27
-11 8 -20 25 -20 37 0 13 -5 23 -11 23 -21 0 -39 29 -39 64 0 25 -4 36 -15 36
-8 0 -15 9 -15 20 0 11 -4 20 -10 20 -5 0 -10 11 -10 25 0 14 -4 25 -10 25 -5
0 -10 11 -10 25 0 16 -6 25 -15 25 -10 0 -15 11 -15 35 0 19 -4 35 -10 35 -5
0 -10 11 -10 25 0 16 -6 25 -15 25 -9 0 -15 9 -15 25 0 14 -4 25 -10 25 -5 0
-10 11 -10 25 0 14 -4 25 -10 25 -5 0 -10 9 -10 20 0 11 -7 20 -15 20 -9 0
-15 9 -15 25 0 14 -4 25 -10 25 -5 0 -10 11 -10 25 0 16 -6 25 -15 25 -9 0
-15 9 -15 25 0 14 -4 25 -10 25 -5 0 -10 16 -10 35 0 19 -4 35 -10 35 -5 0
-10 11 -10 25 0 16 -6 25 -15 25 -10 0 -15 11 -15 35 0 19 -4 35 -10 35 -5 0
-10 11 -10 25 0 16 -6 25 -15 25 -10 0 -15 10 -15 33 0 21 -7 38 -20 47 -11 8
-20 25 -20 37 0 14 -6 23 -15 23 -9 0 -15 9 -15 21 0 22 -22 49 -39 49 -6 0
-11 7 -11 15 0 8 -4 15 -10 15 -5 0 -10 9 -10 21 0 22 -22 49 -39 49 -6 0 -11
9 -11 21 0 22 -22 49 -39 49 -6 0 -11 11 -11 25 0 14 -4 25 -10 25 -5 0 -10
11 -10 25 0 14 -4 25 -10 25 -5 0 -10 16 -10 35 0 24 -5 35 -15 35 -10 0 -15
11 -15 35 0 19 -4 35 -10 35 -6 0 -10 55 -10 145 0 90 4 145 10 145 6 0 10 23
10 50 0 38 4 50 15 50 10 0 15 11 15 35 0 19 5 35 10 35 6 0 10 27 10 60 0 33
4 60 10 60 6 0 10 42 10 105 0 63 -4 105 -10 105 -5 0 -10 23 -10 50 0 28 -4
50 -10 50 -5 0 -10 16 -10 35 0 24 -5 35 -15 35 -9 0 -15 9 -15 21 0 22 -22
49 -39 49 -6 0 -11 11 -11 25 0 14 -4 25 -10 25 -5 0 -10 5 -10 11 0 11 -25
39 -35 39 -10 0 -35 28 -35 39 0 6 -11 11 -25 11 -14 0 -25 5 -25 10 0 6 -11
10 -25 10 -16 0 -25 6 -25 15 0 9 -9 15 -25 15 -14 0 -25 5 -25 10 0 6 -16 10
-35 10 -19 0 -35 5 -35 10 0 6 -27 10 -60 10 -47 0 -60 3 -60 15 0 12 -13 15
-60 15 -47 0 -60 -3 -60 -15 0 -12 -13 -15 -60 -15 -33 0 -60 -4 -60 -10 0 -5
-16 -10 -35 -10 -19 0 -35 -4 -35 -10 0 -5 -16 -10 -35 -10 -24 0 -35 -5 -35
-15 0 -11 -12 -15 -50 -15 -27 0 -50 -4 -50 -10 0 -5 -16 -10 -35 -10 -24 0
-35 -5 -35 -15 0 -11 -12 -15 -50 -15 -27 0 -50 -4 -50 -10 0 -5 -16 -10 -35
-10 -19 0 -35 -4 -35 -10 0 -5 -11 -10 -25 -10 -16 0 -25 -6 -25 -15 0 -8 -9
-15 -20 -15 -11 0 -20 -4 -20 -10 0 -5 -11 -10 -25 -10 -16 0 -25 -6 -25 -15
0 -9 -9 -15 -23 -15 -12 0 -29 -9 -37 -20 -8 -11 -20 -20 -27 -20 -7 0 -13 -7
-13 -15 0 -9 -9 -15 -21 -15 -19 0 -49 -21 -49 -35 0 -8 -27 -35 -35 -35 -10
0 -35 -28 -35 -39 0 -6 -7 -11 -15 -11 -8 0 -15 -9 -15 -20 0 -22 -41 -70 -60
-70 -5 0 -10 -11 -10 -25 0 -14 -4 -25 -10 -25 -5 0 -10 -7 -10 -15 0 -8 -7
-15 -15 -15 -8 0 -15 -9 -15 -20 0 -11 -4 -20 -10 -20 -5 0 -10 -18 -10 -40 0
-22 -4 -40 -10 -40 -6 0 -10 -30 -10 -70 0 -56 -3 -70 -15 -70 -10 0 -15 -11
-15 -35 0 -24 5 -35 15 -35 12 0 15 -15 15 -75 0 -43 4 -75 10 -75 6 0 10 -16
10 -35 0 -19 5 -35 10 -35 6 0 10 -16 10 -35 0 -24 5 -35 15 -35 11 0 15 -12
15 -50 0 -27 5 -50 10 -50 6 0 10 -42 10 -105 0 -63 -4 -105 -10 -105 -5 0
-10 -22 -10 -50 0 -38 -4 -50 -15 -50 -11 0 -15 -12 -15 -45 0 -25 -4 -45 -10
-45 -5 0 -10 -18 -10 -40 0 -22 -4 -40 -10 -40 -5 0 -10 -20 -10 -45 0 -33 -4
-45 -15 -45 -11 0 -15 -12 -15 -50 0 -27 -4 -50 -10 -50 -5 0 -10 -20 -10 -45
0 -33 -4 -45 -15 -45 -11 0 -15 -12 -15 -50 0 -27 -4 -50 -10 -50 -5 0 -10
-16 -10 -35 0 -19 -4 -35 -10 -35 -5 0 -10 -22 -10 -50 0 -38 -4 -50 -15 -50
-10 0 -15 -11 -15 -35 0 -19 -4 -35 -10 -35 -5 0 -10 -16 -10 -35 0 -24 -5
-35 -15 -35 -11 0 -15 -12 -15 -50 0 -27 -4 -50 -10 -50 -5 0 -10 -16 -10 -35
0 -19 -4 -35 -10 -35 -5 0 -10 -16 -10 -35 0 -24 -5 -35 -15 -35 -10 0 -15
-11 -15 -35 0 -19 -4 -35 -10 -35 -5 0 -10 -11 -10 -25 0 -16 -6 -25 -15 -25
-8 0 -15 -5 -15 -10 0 -14 -46 -60 -60 -60 -5 0 -10 -5 -10 -11 0 -17 -27 -39
-49 -39 -12 0 -21 -6 -21 -15 0 -10 -11 -15 -35 -15 -19 0 -35 -4 -35 -10 0
-6 -87 -10 -240 -10 -153 0 -240 -4 -240 -10 0 -5 -22 -10 -50 -10 -38 0 -50
-4 -50 -15 0 -9 -9 -15 -25 -15 -14 0 -25 -4 -25 -10 0 -5 -9 -10 -20 -10 -11
0 -20 -7 -20 -15 0 -9 -9 -15 -25 -15 -14 0 -25 -4 -25 -10 0 -5 -9 -10 -21
-10 -22 0 -49 -22 -49 -39 0 -6 -5 -11 -11 -11 -14 0 -39 -25 -39 -39 0 -6
-10 -11 -23 -11 -12 0 -29 -9 -37 -20 -8 -11 -20 -20 -27 -20 -7 0 -13 -5 -13
-11 0 -14 -25 -39 -39 -39 -6 0 -11 -5 -11 -11 0 -16 -26 -39 -45 -39 -19 0
-45 -23 -45 -39 0 -6 -5 -11 -11 -11 -14 0 -39 -25 -39 -39 0 -6 -10 -11 -23
-11 -12 0 -29 -9 -37 -20 -8 -11 -20 -20 -27 -20 -7 0 -13 -7 -13 -15 0 -8 -9
-15 -20 -15 -11 0 -20 -4 -20 -10 0 -5 -7 -10 -15 -10 -8 0 -15 -7 -15 -15 0
-8 -9 -15 -20 -15 -22 0 -70 -41 -70 -60 0 -5 -11 -10 -25 -10 -14 0 -25 -4
-25 -10 0 -5 -7 -10 -15 -10 -8 0 -15 -5 -15 -10 0 -19 -48 -60 -70 -60 -11 0
-20 -7 -20 -15 0 -8 -5 -15 -11 -15 -14 0 -39 -25 -39 -39 0 -6 -10 -11 -23
-11 -12 0 -29 -9 -37 -20 -8 -11 -25 -20 -37 -20 -13 0 -23 -5 -23 -11 0 -17
-27 -39 -49 -39 -12 0 -21 -6 -21 -15 0 -9 -9 -15 -25 -15 -14 0 -25 -4 -25
-10 0 -5 -11 -10 -25 -10 -14 0 -25 -4 -25 -10 0 -5 -11 -10 -25 -10 -16 0
-25 -6 -25 -15 0 -8 -9 -15 -20 -15 -11 0 -20 -4 -20 -10 0 -5 -18 -10 -40
-10 -29 0 -40 -4 -40 -15 0 -10 -11 -15 -35 -15 -19 0 -35 -4 -35 -10 0 -5
-11 -10 -25 -10 -14 0 -25 -4 -25 -10 0 -5 -16 -10 -35 -10 -24 0 -35 -5 -35
-15 0 -13 -21 -15 -130 -15 -109 0 -130 2 -130 15 0 8 -7 15 -15 15 -8 0 -15
5 -15 10 0 6 -9 10 -20 10 -15 0 -20 7 -20 25 0 16 -6 25 -15 25 -9 0 -15 9
-15 25 0 14 -4 25 -10 25 -6 0 -10 47 -10 120 0 73 4 120 10 120 6 0 10 16 10
35 0 24 5 35 15 35 10 0 15 11 15 35 0 19 5 35 10 35 6 0 10 11 10 25 0 14 5
25 10 25 6 0 10 11 10 25 0 16 6 25 15 25 10 0 15 11 15 35 0 19 5 35 10 35 6
0 10 11 10 25 0 16 6 25 15 25 10 0 15 11 15 35 0 19 5 35 10 35 6 0 10 16 10
35 0 19 5 35 10 35 6 0 10 16 10 35 0 24 5 35 15 35 11 0 15 12 15 50 0 28 5
50 10 50 6 0 10 20 10 45 0 33 4 45 15 45 12 0 15 13 15 60 0 33 4 60 10 60 6
0 10 23 10 50 0 28 5 50 10 50 6 0 10 23 10 50 0 38 4 50 15 50 8 0 15 9 15
20 0 11 5 20 10 20 6 0 10 18 10 40 0 29 4 40 15 40 8 0 15 9 15 20 0 11 5 20
10 20 6 0 10 7 10 15 0 8 5 15 10 15 6 0 10 11 10 25 0 14 6 25 13 25 7 0 19
9 27 20 8 11 20 20 27 20 7 0 13 6 13 13 0 7 9 19 20 27 11 8 20 20 20 27 0 7
6 13 13 13 7 0 19 9 27 20 8 11 25 20 37 20 13 0 23 5 23 11 0 17 27 39 49 39
12 0 21 6 21 15 0 9 9 15 25 15 14 0 25 5 25 10 0 6 23 10 50 10 28 0 50 5 50
10 0 6 27 10 60 10 33 0 60 -4 60 -10 0 -5 20 -10 45 -10 25 0 45 -4 45 -10 0
-5 16 -10 35 -10 24 0 35 -5 35 -15 0 -9 9 -15 25 -15 14 0 25 -4 25 -10 0 -5
16 -10 35 -10 24 0 35 -5 35 -15 0 -12 13 -15 60 -15 33 0 60 -4 60 -10 0 -5
23 -10 50 -10 28 0 50 5 50 10 0 6 27 10 60 10 47 0 60 3 60 15 0 10 11 15 35
15 19 0 35 5 35 10 0 6 11 10 25 10 16 0 25 6 25 15 0 9 9 15 23 15 12 0 29 9
37 20 8 11 20 20 27 20 7 0 13 6 13 13 0 7 9 19 20 27 11 8 20 20 20 27 0 7 6
13 13 13 7 0 19 9 27 20 8 11 20 20 27 20 7 0 13 11 13 25 0 14 5 25 10 25 6
0 10 11 10 25 0 14 5 25 10 25 6 0 10 11 10 25 0 16 6 25 15 25 9 0 15 9 15
25 0 14 5 25 10 25 6 0 10 16 10 35 0 24 5 35 15 35 10 0 15 11 15 35 0 19 5
35 10 35 6 0 10 16 10 35 0 19 5 35 10 35 6 0 10 16 10 35 0 24 5 35 15 35 12
0 15 13 15 60 0 33 4 60 10 60 6 0 10 60 10 160 0 100 -4 160 -10 160 -5 0
-10 20 -10 45 0 33 -4 45 -15 45 -9 0 -15 9 -15 25 0 14 -4 25 -10 25 -5 0
-10 16 -10 35 0 19 -4 35 -10 35 -5 0 -10 7 -10 15 0 8 -7 15 -15 15 -8 0 -15
9 -15 20 0 11 -4 20 -10 20 -5 0 -10 11 -10 25 0 16 -6 25 -15 25 -8 0 -15 6
-15 13 0 7 -9 19 -20 27 -11 8 -20 25 -20 37 0 13 -5 23 -11 23 -14 0 -39 25
-39 39 0 6 -5 11 -10 11 -14 0 -60 46 -60 60 0 5 -5 10 -11 10 -14 0 -39 25
-39 39 0 6 -10 11 -23 11 -12 0 -29 9 -37 20 -8 11 -25 20 -37 20 -14 0 -23 6
-23 15 0 9 -9 15 -25 15 -14 0 -25 5 -25 10 0 6 -11 10 -25 10 -16 0 -25 6
-25 15 0 10 -11 15 -35 15 -19 0 -35 5 -35 10 0 6 -35 10 -85 10 -50 0 -85 4
-85 10 0 6 -20 10 -45 10 -25 0 -45 -4 -45 -10 0 -6 -40 -10 -100 -10 -60 0
-100 -4 -100 -10 0 -6 -27 -10 -60 -10 -47 0 -60 -3 -60 -15 0 -11 -12 -15
-45 -15 -25 0 -45 -4 -45 -10 0 -5 -16 -10 -35 -10 -24 0 -35 -5 -35 -15 0 -9
-9 -15 -25 -15 -14 0 -25 -4 -25 -10 0 -5 -16 -10 -35 -10 -19 0 -35 -4 -35
-10 0 -5 -11 -10 -25 -10 -16 0 -25 -6 -25 -15 0 -9 -9 -15 -25 -15 -14 0 -25
-4 -25 -10 0 -5 -11 -10 -25 -10 -14 0 -25 -5 -25 -11 0 -16 -26 -39 -45 -39
-19 0 -45 -23 -45 -39 0 -6 -11 -11 -25 -11 -14 0 -25 -4 -25 -10 0 -5 -7 -10
-15 -10 -8 0 -15 -5 -15 -11 0 -16 -26 -39 -45 -39 -19 0 -45 -23 -45 -39 0
-6 -5 -11 -11 -11 -11 0 -39 -25 -39 -35 0 -8 -27 -35 -35 -35 -10 0 -35 -28
-35 -39 0 -6 -5 -11 -11 -11 -11 0 -39 -25 -39 -35 0 -8 -27 -35 -35 -35 -10
0 -35 -28 -35 -39 0 -6 -5 -11 -11 -11 -11 0 -39 -25 -39 -35 0 -8 -27 -35
-35 -35 -10 0 -35 -28 -35 -39 0 -6 -5 -11 -11 -11 -11 0 -39 -25 -39 -35 0
-10 -28 -35 -39 -35 -6 0 -11 -9 -11 -21 0 -22 -22 -49 -39 -49 -6 0 -11 -5
-11 -10 0 -14 -46 -60 -60 -60 -5 0 -10 -5 -10 -11 0 -14 -25 -39 -39 -39 -6
0 -11 -10 -11 -23 0 -12 -9 -29 -20 -37 -11 -8 -20 -25 -20 -37 0 -14 -6 -23
-15 -23 -8 0 -15 -7 -15 -15 0 -8 -4 -15 -10 -15 -5 0 -10 -9 -10 -20 0 -11
-7 -20 -15 -20 -9 0 -15 -9 -15 -25 0 -14 -4 -25 -10 -25 -5 0 -10 -7 -10 -15
0 -8 -4 -15 -10 -15 -5 0 -10 -9 -10 -20 0 -11 -7 -20 -15 -20 -9 0 -15 -9
-15 -25 0 -14 -4 -25 -10 -25 -5 0 -10 -7 -10 -15 0 -8 -7 -15 -15 -15 -8 0
-15 -9 -15 -20 0 -11 -4 -20 -10 -20 -5 0 -10 -7 -10 -15 0 -8 -4 -15 -10 -15
-5 0 -10 -11 -10 -25 0 -14 -5 -25 -11 -25 -17 0 -39 -27 -39 -49 0 -12 -5
-21 -11 -21 -17 0 -39 -27 -39 -49 0 -12 -4 -21 -10 -21 -5 0 -10 -11 -10 -25
0 -16 -6 -25 -15 -25 -9 0 -15 -9 -15 -21 0 -22 -22 -49 -39 -49 -6 0 -11 -11
-11 -25 0 -14 -4 -25 -10 -25 -5 0 -10 -11 -10 -25 0 -14 -4 -25 -10 -25 -5 0
-10 -9 -10 -20 0 -11 -7 -20 -15 -20 -9 0 -15 -9 -15 -25 0 -14 -4 -25 -10
-25 -5 0 -10 -11 -10 -25 0 -16 -6 -25 -15 -25 -9 0 -15 -9 -15 -25 0 -14 -4
-25 -10 -25 -5 0 -10 -11 -10 -25 0 -14 -4 -25 -10 -25 -5 0 -10 -9 -10 -20 0
-11 -7 -20 -15 -20 -9 0 -15 -9 -15 -25 0 -14 -4 -25 -10 -25 -5 0 -10 -7 -10
-15 0 -8 -7 -15 -15 -15 -8 0 -15 -9 -15 -20 0 -11 -4 -20 -10 -20 -5 0 -10
-5 -10 -11 0 -17 -27 -39 -49 -39 -12 0 -21 -6 -21 -15 0 -12 -15 -15 -75 -15
-60 0 -75 3 -75 15 0 8 -9 15 -20 15 -11 0 -20 5 -20 10 0 6 -7 10 -15 10 -9
0 -15 9 -15 25 0 14 -4 25 -10 25 -5 0 -10 11 -10 25 0 16 -6 25 -15 25 -12 0
-15 13 -15 60 0 33 -4 60 -10 60 -6 0 -10 47 -10 120 0 73 -4 120 -10 120 -6
0 -10 98 -10 275 0 238 -2 275 -15 275 -11 0 -15 12 -15 50 0 28 -4 50 -10 50
-5 0 -10 16 -10 35 0 24 -5 35 -15 35 -9 0 -15 9 -15 25 0 14 -4 25 -10 25 -5
0 -10 9 -10 20 0 11 -4 20 -10 20 -5 0 -10 7 -10 15 0 8 -7 15 -15 15 -9 0
-15 9 -15 21 0 19 -21 49 -35 49 -8 0 -35 27 -35 35 0 10 -28 35 -39 35 -6 0
-11 5 -11 11 0 14 -25 39 -39 39 -6 0 -11 5 -11 10 0 6 -9 10 -20 10 -11 0
-20 7 -20 15 0 8 -7 15 -15 15 -8 0 -15 5 -15 10 0 6 -11 10 -25 10 -16 0 -25
6 -25 15 0 8 -9 15 -20 15 -11 0 -20 5 -20 10 0 6 -18 10 -40 10 -22 0 -40 5
-40 10 0 6 -9 10 -20 10 -11 0 -20 7 -20 15 0 9 -9 15 -25 15 -14 0 -25 5 -25
10 0 6 -11 10 -25 10 -16 0 -25 6 -25 15 0 9 -9 15 -23 15 -12 0 -29 9 -37 20
-8 11 -25 20 -37 20 -13 0 -23 5 -23 11 0 14 -25 39 -39 39 -6 0 -11 5 -11 11
0 11 -25 39 -35 39 -14 0 -35 30 -35 49 0 12 -4 21 -10 21 -5 0 -10 7 -10 15
0 8 -6 15 -13 15 -7 0 -19 9 -27 20 -8 11 -25 20 -37 20 -13 0 -23 5 -23 11 0
14 -25 39 -39 39 -6 0 -11 5 -11 11 0 17 -27 39 -49 39 -12 0 -21 5 -21 10 0
6 -11 10 -25 10 -16 0 -25 6 -25 15 0 9 -9 15 -25 15 -14 0 -25 5 -25 10 0 6
-16 10 -35 10 -24 0 -35 5 -35 15 0 11 -12 15 -45 15 -25 0 -45 5 -45 10 0 6
-43 10 -110 10 -67 0 -110 -4 -110 -10 0 -5 -22 -10 -50 -10 -38 0 -50 -4 -50
-15 0 -10 -11 -15 -35 -15 -19 0 -35 -4 -35 -10 0 -5 -11 -10 -25 -10 -14 0
-25 -5 -25 -11 0 -16 -26 -39 -45 -39 -19 0 -45 -23 -45 -39 0 -6 -5 -11 -11
-11 -11 0 -39 -25 -39 -35 0 -8 -27 -35 -35 -35 -10 0 -35 -28 -35 -39 0 -6
-5 -11 -11 -11 -11 0 -39 -25 -39 -35 0 -8 -27 -35 -35 -35 -10 0 -35 -28 -35
-39 0 -6 -7 -11 -15 -11 -8 0 -15 -9 -15 -20 0 -22 -41 -70 -60 -70 -5 0 -10
-11 -10 -25 0 -14 -4 -25 -10 -25 -5 0 -10 -7 -10 -15 0 -8 -5 -15 -11 -15
-16 0 -39 -26 -39 -45 0 -19 -23 -45 -39 -45 -6 0 -11 -7 -11 -15 0 -8 -4 -15
-10 -15 -5 0 -10 -9 -10 -20 0 -11 -7 -20 -15 -20 -8 0 -15 -7 -15 -15 0 -8
-4 -15 -10 -15 -5 0 -10 -11 -10 -25 0 -14 -4 -25 -10 -25 -5 0 -10 -9 -10
-20 0 -11 -7 -20 -15 -20 -8 0 -15 -7 -15 -15 0 -8 -4 -15 -10 -15 -5 0 -10
-11 -10 -25 0 -16 -6 -25 -15 -25 -8 0 -15 -9 -15 -20 0 -11 -4 -20 -10 -20
-5 0 -10 -11 -10 -25 0 -14 -4 -25 -10 -25 -5 0 -10 -11 -10 -25 0 -16 -6 -25
-15 -25 -9 0 -15 -9 -15 -25 0 -14 -4 -25 -10 -25 -5 0 -10 -11 -10 -25 0 -16
-6 -25 -15 -25 -8 0 -15 -9 -15 -20 0 -11 -4 -20 -10 -20 -5 0 -10 -7 -10 -15
0 -8 -4 -15 -10 -15 -5 0 -10 -11 -10 -25 0 -16 -6 -25 -15 -25 -8 0 -15 -9
-15 -20 0 -11 -4 -20 -10 -20 -5 0 -10 -11 -10 -25 0 -16 -6 -25 -15 -25 -10
0 -15 -11 -15 -35 0 -19 -4 -35 -10 -35 -5 0 -10 -18 -10 -40 0 -22 -4 -40
-10 -40 -5 0 -10 -16 -10 -35 0 -24 -5 -35 -15 -35 -10 0 -15 -11 -15 -35 0
-19 -4 -35 -10 -35 -5 0 -10 -16 -10 -35 0 -24 -5 -35 -15 -35 -10 0 -15 -11
-15 -35 0 -19 -4 -35 -10 -35 -5 0 -10 -18 -10 -40 0 -22 -4 -40 -10 -40 -5 0
-10 -20 -10 -45 0 -33 -4 -45 -15 -45 -11 0 -15 -12 -15 -50 0 -27 -4 -50 -10
-50 -6 0 -10 -27 -10 -60 0 -47 -3 -60 -15 -60 -10 0 -15 -11 -15 -35 0 -19
-4 -35 -10 -35 -5 0 -10 -16 -10 -35 0 -19 -4 -35 -10 -35 -5 0 -10 -11 -10
-25 0 -14 -5 -25 -11 -25 -14 0 -39 -25 -39 -39 0 -6 -7 -11 -15 -11 -8 0 -15
-4 -15 -10 0 -5 -9 -10 -20 -10 -11 0 -20 -7 -20 -15 0 -12 -13 -15 -60 -15
-47 0 -60 3 -60 15 0 9 -9 15 -25 15 -14 0 -25 5 -25 10 0 6 -7 10 -15 10 -8
0 -15 5 -15 10 0 14 -46 60 -60 60 -5 0 -10 11 -10 25 0 14 -4 25 -10 25 -5 0
-10 11 -10 25 0 14 -5 25 -11 25 -17 0 -39 27 -39 49 0 12 -4 21 -10 21 -5 0
-10 11 -10 25 0 16 -6 25 -15 25 -9 0 -15 9 -15 25 0 14 -4 25 -10 25 -5 0
-10 11 -10 25 0 16 -6 25 -15 25 -8 0 -15 9 -15 20 0 11 -4 20 -10 20 -5 0
-10 11 -10 25 0 14 -4 25 -10 25 -5 0 -10 11 -10 25 0 16 -6 25 -15 25 -10 0
-15 11 -15 35 0 19 -4 35 -10 35 -5 0 -10 11 -10 25 0 16 -6 25 -15 25 -9 0
-15 9 -15 25 0 14 -4 25 -10 25 -5 0 -10 9 -10 21 0 22 -22 49 -39 49 -6 0
-11 11 -11 25 0 14 -4 25 -10 25 -5 0 -10 11 -10 25 0 14 -5 25 -11 25 -17 0
-39 27 -39 49 0 12 -4 21 -10 21 -5 0 -10 11 -10 25 0 14 -5 25 -11 25 -17 0
-39 27 -39 49 0 12 -6 21 -15 21 -8 0 -15 9 -15 20 0 22 -41 70 -60 70 -5 0
-10 11 -10 25 0 14 -4 25 -10 25 -5 0 -10 7 -10 15 0 8 -5 15 -10 15 -14 0
-60 46 -60 60 0 5 -11 10 -25 10 -14 0 -25 5 -25 10 0 6 -7 10 -15 10 -8 0
-15 7 -15 15 0 8 -9 15 -20 15 -11 0 -20 5 -20 10 0 6 -11 10 -25 10 -14 0
-25 5 -25 10 0 6 -11 10 -25 10 -16 0 -25 6 -25 15 0 11 -12 15 -50 15 -27 0
-50 5 -50 10 0 6 -70 10 -190 10 -120 0 -190 -4 -190 -10 0 -5 -22 -10 -50
-10 -38 0 -50 -4 -50 -15 0 -10 -11 -15 -35 -15 -19 0 -35 -4 -35 -10 0 -5 -9
-10 -21 -10 -22 0 -49 -22 -49 -39 0 -6 -9 -11 -21 -11 -22 0 -49 -22 -49 -39
0 -6 -10 -11 -23 -11 -12 0 -29 -9 -37 -20 -8 -11 -20 -20 -27 -20 -7 0 -13
-5 -13 -11 0 -14 -25 -39 -39 -39 -6 0 -11 -10 -11 -23 0 -12 -9 -29 -20 -37
-11 -8 -20 -25 -20 -37 0 -14 -6 -23 -15 -23 -9 0 -15 -9 -15 -25 0 -14 -4
-25 -10 -25 -5 0 -10 -11 -10 -25 0 -16 -6 -25 -15 -25 -9 0 -15 -9 -15 -25 0
-14 -4 -25 -10 -25 -5 0 -10 -9 -10 -20 0 -11 -4 -20 -10 -20 -5 0 -10 -11
-10 -25 0 -16 -6 -25 -15 -25 -10 0 -15 -11 -15 -35 0 -19 -4 -35 -10 -35 -5
0 -10 -11 -10 -25 0 -16 -6 -25 -15 -25 -9 0 -15 -9 -15 -25 0 -14 -4 -25 -10
-25 -5 0 -10 -16 -10 -35 0 -19 -4 -35 -10 -35 -5 0 -10 -16 -10 -35 0 -24 -5
-35 -15 -35 -11 0 -15 -11 -15 -40 0 -22 -4 -40 -10 -40 -5 0 -10 -16 -10 -35
0 -24 -5 -35 -15 -35 -10 0 -15 -11 -15 -35 0 -19 -4 -35 -10 -35 -5 0 -10
-16 -10 -35 0 -19 -4 -35 -10 -35 -5 0 -10 -16 -10 -35 0 -24 -5 -35 -15 -35
-12 0 -15 -13 -15 -60 0 -33 -4 -60 -10 -60 -6 0 -10 -52 -10 -135 0 -83 4
-135 10 -135 6 0 10 -20 10 -45 0 -33 4 -45 15 -45 11 0 15 -11 15 -40 0 -22
5 -40 10 -40 6 0 10 -9 10 -20 0 -11 5 -20 10 -20 6 0 10 -11 10 -25 0 -16 6
-25 15 -25 8 0 15 -5 15 -11 0 -11 25 -39 35 -39 8 0 35 -27 35 -35 0 -10 28
-35 39 -35 6 0 11 -5 11 -11 0 -17 27 -39 49 -39 12 0 21 -4 21 -10 0 -5 11
-10 25 -10 16 0 25 -6 25 -15 0 -10 11 -15 35 -15 19 0 35 -4 35 -10 0 -6 27
-10 60 -10 47 0 60 -3 60 -15 0 -12 13 -15 60 -15 33 0 60 -4 60 -10 0 -5 23
-10 50 -10 28 0 50 -4 50 -10 0 -5 9 -10 20 -10 11 0 20 -7 20 -15 0 -8 7 -15
15 -15 8 0 15 -4 15 -10 0 -5 11 -10 25 -10 14 0 25 -5 25 -10 0 -14 46 -60
60 -60 5 0 10 -11 10 -25 0 -14 5 -25 10 -25 6 0 10 -7 10 -15 0 -8 7 -15 15
-15 8 0 15 -9 15 -20 0 -11 5 -20 10 -20 6 0 10 -11 10 -25 0 -14 5 -25 10
-25 6 0 10 -11 10 -25 0 -16 6 -25 15 -25 9 0 15 -9 15 -25 0 -14 5 -25 10
-25 6 0 10 -11 10 -25 0 -16 6 -25 15 -25 8 0 15 -9 15 -20 0 -11 5 -20 10
-20 6 0 10 -16 10 -36 0 -35 18 -64 39 -64 6 0 11 -11 11 -25 0 -14 5 -25 10
-25 6 0 10 -11 10 -25 0 -16 6 -25 15 -25 8 0 15 -9 15 -20 0 -11 5 -20 10
-20 6 0 10 -7 10 -15 0 -8 5 -15 10 -15 6 0 10 -11 10 -25 0 -14 5 -25 11 -25
17 0 39 -27 39 -49 0 -12 5 -21 11 -21 16 0 39 -26 39 -45 0 -19 23 -45 39
-45 6 0 11 -11 11 -25 0 -14 5 -25 10 -25 6 0 10 -11 10 -25 0 -14 5 -25 11
-25 17 0 39 -27 39 -49 0 -12 5 -21 10 -21 6 0 10 -11 10 -25 0 -16 6 -25 15
-25 9 0 15 -9 15 -25 0 -14 5 -25 10 -25 6 0 10 -11 10 -25 0 -16 6 -25 15
-25 10 0 15 -11 15 -35 0 -19 5 -35 10 -35 6 0 10 -11 10 -25 0 -14 5 -25 10
-25 6 0 10 -16 10 -35 0 -24 5 -35 15 -35 9 0 15 -9 15 -25 0 -14 5 -25 10
-25 6 0 10 -16 10 -35 0 -24 5 -35 15 -35 10 0 15 -11 15 -35 0 -19 5 -35 10
-35 6 0 10 -11 10 -25 0 -14 5 -25 10 -25 6 0 10 -16 10 -35 0 -24 5 -35 15
-35 9 0 15 -9 15 -25 0 -14 5 -25 10 -25 6 0 10 -16 10 -35 0 -24 5 -35 15
-35 9 0 15 -9 15 -25 0 -14 5 -25 10 -25 6 0 10 -11 10 -25 0 -14 5 -25 10
-25 6 0 10 -9 10 -20 0 -11 7 -20 15 -20 8 0 15 -7 15 -15 0 -8 5 -15 10 -15
6 0 10 -11 10 -25 0 -16 6 -25 15 -25 8 0 15 -9 15 -20 0 -11 5 -20 10 -20 6
0 10 -7 10 -15 0 -8 5 -15 10 -15 6 0 10 -11 10 -25 0 -16 6 -25 15 -25 8 0
15 -9 15 -20 0 -11 5 -20 10 -20 6 0 10 -11 10 -25 0 -16 6 -25 15 -25 10 0
15 -11 15 -35 0 -19 5 -35 10 -35 6 0 10 -22 10 -50 0 -27 5 -50 10 -50 6 0
10 -16 10 -35 0 -24 5 -35 15 -35 10 0 15 -11 15 -35 0 -19 5 -35 10 -35 6 0
10 -11 10 -25 0 -16 6 -25 15 -25 8 0 15 -7 15 -15 0 -8 5 -15 10 -15 6 0 10
-9 10 -20 0 -11 5 -20 10 -20 6 0 10 -7 10 -15 0 -8 5 -15 11 -15 14 0 39 -25
39 -39 0 -6 6 -11 13 -11 7 0 19 -9 27 -20 8 -11 25 -20 37 -20 13 0 23 -5 23
-11 0 -17 27 -39 49 -39 12 0 21 -6 21 -15 0 -10 11 -15 35 -15 19 0 35 -4 35
-10 0 -6 27 -10 60 -10 33 0 60 -4 60 -10 0 -6 32 -10 75 -10 43 0 75 4 75 10
0 6 27 10 60 10 33 0 60 4 60 10 0 6 16 10 35 10 24 0 35 5 35 15 0 9 9 15 25
15 14 0 25 5 25 10 0 6 9 10 20 10 11 0 20 7 20 15 0 8 7 15 15 15 8 0 15 5
15 10 0 6 9 10 21 10 22 0 49 22 49 39 0 6 9 11 21 11 22 0 49 22 49 39 0 6 7
11 15 11 8 0 15 5 15 10 0 6 9 10 20 10 11 0 20 5 20 10 0 6 7 10 15 10 8 0
15 5 15 11 0 17 27 39 49 39 12 0 21 5 21 11 0 11 25 39 35 39 10 0 35 28 35
39 0 6 7 11 15 11 9 0 15 9 15 23 0 12 9 29 20 37 11 8 20 25 20 37 0 14 6 23
15 23 10 0 15 11 15 35 0 19 5 35 10 35 6 0 10 16 10 35 0 24 5 35 15 35 12 0
15 16 15 85 0 50 4 85 10 85 6 0 10 27 10 60 0 33 -4 60 -10 60 -6 0 -10 118
-10 335 0 217 4 335 10 335 6 0 10 32 10 75 0 43 4 75 10 75 6 0 10 27 10 60
0 47 3 60 15 60 10 0 15 11 15 35 0 19 5 35 10 35 6 0 10 27 10 60 0 47 3 60
15 60 12 0 15 14 15 70 0 40 4 70 10 70 6 0 10 35 10 85 0 50 4 85 10 85 6 0
10 27 10 60 0 47 3 60 15 60 11 0 15 12 15 50 0 28 5 50 10 50 6 0 10 20 10
45 0 33 4 45 15 45 11 0 15 12 15 50 0 28 5 50 10 50 6 0 10 20 10 45 0 25 5
45 10 45 6 0 10 23 10 50 0 38 4 50 15 50 10 0 15 11 15 35 0 19 5 35 10 35 6
0 10 16 10 35 0 24 5 35 15 35 9 0 15 9 15 25 0 14 5 25 10 25 6 0 10 11 10
25 0 14 5 25 10 25 6 0 10 11 10 25 0 14 5 25 11 25 14 0 39 25 39 39 0 7 24
11 60 11 47 0 60 -3 60 -15 0 -8 5 -15 11 -15 17 0 39 -27 39 -49 0 -12 5 -21
10 -21 6 0 10 -11 10 -25 0 -16 6 -25 15 -25 11 0 15 -12 15 -45 0 -25 5 -45
10 -45 6 0 10 -27 10 -60 0 -47 3 -60 15 -60 12 0 15 -16 15 -85 0 -50 4 -85
10 -85 6 0 10 -67 10 -180 0 -113 4 -180 10 -180 6 0 10 -35 10 -85 0 -69 3
-85 15 -85 12 0 15 -17 15 -95 0 -57 4 -95 10 -95 6 0 10 -63 10 -170 0 -144
2 -170 15 -170 12 0 15 -13 15 -60 0 -33 4 -60 10 -60 6 0 10 -16 10 -35 0
-19 5 -35 10 -35 6 0 10 -11 10 -25 0 -16 6 -25 15 -25 9 0 15 -9 15 -21 0
-22 22 -49 39 -49 6 0 11 -10 11 -23 0 -12 9 -29 20 -37 11 -8 20 -20 20 -27
0 -7 6 -13 13 -13 7 0 19 -9 27 -20 8 -11 20 -20 27 -20 7 0 13 -11 13 -25 0
-14 5 -25 10 -25 6 0 10 -5 10 -11 0 -11 25 -39 35 -39 10 0 35 -28 35 -39 0
-6 5 -11 11 -11 11 0 39 -25 39 -35 0 -8 27 -35 35 -35 10 0 35 -28 35 -39 0
-6 9 -11 21 -11 22 0 49 -22 49 -39 0 -6 11 -11 25 -11 14 0 25 -4 25 -10 0
-5 11 -10 25 -10 14 0 25 -4 25 -10 0 -6 27 -10 60 -10 47 0 60 -3 60 -15 0
-12 13 -15 60 -15 47 0 60 3 60 15 0 12 13 15 60 15 33 0 60 4 60 10 0 6 16
10 35 10 19 0 35 5 35 10 0 6 11 10 25 10 16 0 25 6 25 15 0 9 9 15 21 15 22
0 49 22 49 39 0 6 10 11 23 11 12 0 29 9 37 20 8 11 20 20 27 20 7 0 13 5 13
11 0 14 25 39 39 39 6 0 11 7 11 15 0 8 9 15 20 15 11 0 20 5 20 10 0 6 7 10
15 10 8 0 15 5 15 10 0 6 16 10 35 10 24 0 35 5 35 15 0 12 14 15 70 15 56 0
70 -3 70 -15 0 -11 11 -15 40 -15 22 0 40 -4 40 -10 0 -5 9 -10 20 -10 11 0
20 -4 20 -10 0 -5 11 -10 25 -10 16 0 25 -6 25 -15 0 -9 9 -15 21 -15 22 0 49
-22 49 -39 0 -6 11 -11 25 -11 14 0 25 -4 25 -10 0 -5 16 -10 35 -10 19 0 35
-4 35 -10 0 -5 18 -10 40 -10 29 0 40 -4 40 -15 0 -12 13 -15 60 -15 33 0 60
-4 60 -10 0 -6 113 -10 320 -10 207 0 320 4 320 10 0 6 27 10 60 10 47 0 60 3
60 15 0 11 11 15 40 15 22 0 40 5 40 10 0 6 16 10 35 10 19 0 35 5 35 10 0 6
16 10 35 10 24 0 35 5 35 15 0 9 9 15 25 15 14 0 25 5 25 10 0 6 16 10 35 10
24 0 35 5 35 15 0 10 11 15 35 15 19 0 35 5 35 10 0 6 16 10 35 10 19 0 35 5
35 10 0 6 11 10 25 10 16 0 25 6 25 15 0 9 9 15 25 15 14 0 25 5 25 10 0 6 11
10 25 10 16 0 25 6 25 15 0 9 9 15 25 15 14 0 25 5 25 10 0 6 9 10 20 10 11 0
20 5 20 10 0 6 11 10 25 10 16 0 25 6 25 15 0 8 7 15 15 15 8 0 15 5 15 10 0
6 9 10 20 10 11 0 20 7 20 15 0 8 7 15 15 15 8 0 15 5 15 10 0 6 9 10 21 10
22 0 49 22 49 39 0 6 11 11 25 11 14 0 25 5 25 10 0 6 11 10 25 10 14 0 25 5
25 11 0 16 26 39 45 39 19 0 45 23 45 39 0 6 9 11 21 11 22 0 49 22 49 39 0 6
11 11 25 11 14 0 25 5 25 10 0 6 7 10 15 10 8 0 15 5 15 10 0 6 9 10 20 10 11
0 20 7 20 15 0 9 9 15 25 15 14 0 25 5 25 10 0 6 7 10 15 10 8 0 15 7 15 15 0
8 9 15 20 15 11 0 20 5 20 10 0 6 11 10 25 10 14 0 25 5 25 10 0 6 11 10 25
10 16 0 25 6 25 15 0 9 9 15 25 15 14 0 25 5 25 10 0 6 11 10 25 10 16 0 25 6
25 15 0 8 9 15 20 15 11 0 20 5 20 10 0 6 11 10 25 10 14 0 25 5 25 10 0 6 11
10 25 10 16 0 25 6 25 15 0 13 20 15 120 15 100 0 120 -2 120 -15 0 -9 9 -15
23 -15 12 0 29 -9 37 -20 8 -11 20 -20 27 -20 7 0 13 -7 13 -15 0 -8 5 -15 10
-15 6 0 10 -11 10 -25 0 -14 5 -25 10 -25 6 0 10 -16 10 -35 0 -24 5 -35 15
-35 12 0 15 -16 15 -85 0 -69 -3 -85 -15 -85 -11 0 -15 -12 -15 -45 0 -25 -4
-45 -10 -45 -5 0 -10 -16 -10 -35 0 -19 -4 -35 -10 -35 -5 0 -10 -11 -10 -25
0 -16 -6 -25 -15 -25 -9 0 -15 -9 -15 -25 0 -14 -4 -25 -10 -25 -5 0 -10 -11
-10 -25 0 -16 -6 -25 -15 -25 -9 0 -15 -9 -15 -25 0 -14 -4 -25 -10 -25 -5 0
-10 -16 -10 -35 0 -19 -4 -35 -10 -35 -5 0 -10 -11 -10 -25 0 -16 -6 -25 -15
-25 -12 0 -15 -13 -15 -60 0 -33 -4 -60 -10 -60 -6 0 -10 -47 -10 -120 0 -73
4 -120 10 -120 6 0 10 -20 10 -45 0 -33 4 -45 15 -45 9 0 15 -9 15 -25 0 -14
5 -25 10 -25 6 0 10 -11 10 -25 0 -14 5 -25 10 -25 6 0 10 -11 10 -25 0 -14 6
-25 13 -25 7 0 19 -9 27 -20 8 -11 20 -20 27 -20 7 0 13 -6 13 -13 0 -7 9 -19
20 -27 11 -8 20 -20 20 -27 0 -7 7 -13 15 -13 8 0 15 -4 15 -10 0 -5 11 -10
25 -10 14 0 25 -4 25 -10 0 -5 9 -10 20 -10 11 0 20 -7 20 -15 0 -9 9 -15 25
-15 14 0 25 -4 25 -10 0 -5 16 -10 35 -10 24 0 35 -5 35 -15 0 -13 24 -15 160
-15 136 0 160 2 160 15 0 10 11 15 35 15 19 0 35 5 35 10 0 6 11 10 25 10 16
0 25 6 25 15 0 8 9 15 20 15 11 0 20 5 20 10 0 6 11 10 25 10 14 0 25 5 25 10
0 6 7 10 15 10 8 0 15 6 15 13 0 7 9 19 20 27 11 8 20 20 20 27 0 7 6 13 13
13 7 0 19 9 27 20 8 11 20 20 27 20 7 0 13 11 13 25 0 14 5 25 10 25 6 0 10 7
10 15 0 8 5 15 10 15 6 0 10 9 10 20 0 11 7 20 15 20 9 0 15 9 15 25 0 14 5
25 10 25 6 0 10 16 10 35 0 24 5 35 15 35 11 0 15 11 15 40 0 22 5 40 10 40 6
0 10 9 10 20 0 11 5 20 10 20 6 0 10 18 10 40 0 29 4 40 15 40 8 0 15 9 15 20
0 11 5 20 10 20 6 0 10 18 10 40 0 29 4 40 15 40 8 0 15 9 15 20 0 11 5 20 10
20 6 0 10 18 10 40 0 22 5 40 10 40 6 0 10 9 10 20 0 11 7 20 15 20 11 0 15
11 15 40 0 22 5 40 10 40 6 0 10 16 10 35 0 24 5 35 15 35 10 0 15 11 15 35 0
19 5 35 10 35 6 0 10 11 10 25 0 14 5 25 10 25 6 0 10 16 10 35 0 24 5 35 15
35 10 0 15 11 15 35 0 19 5 35 10 35 6 0 10 11 10 25 0 16 6 25 15 25 10 0 15
11 15 35 0 19 5 35 10 35 6 0 10 11 10 25 0 14 5 25 10 25 6 0 10 11 10 25 0
16 6 25 15 25 9 0 15 9 15 25 0 14 5 25 10 25 6 0 10 9 10 20 0 11 7 20 15 20
9 0 15 9 15 25 0 14 5 25 10 25 6 0 10 7 10 15 0 8 5 15 10 15 6 0 10 9 10 20
0 11 7 20 15 20 8 0 15 5 15 11 0 14 25 39 39 39 6 0 11 5 11 10 0 14 46 60
60 60 5 0 10 5 10 11 0 14 25 39 39 39 6 0 11 7 11 15 0 8 9 15 20 15 11 0 20
5 20 10 0 6 7 10 15 10 8 0 15 5 15 10 0 6 11 10 25 10 16 0 25 6 25 15 0 8 9
15 20 15 11 0 20 5 20 10 0 6 11 10 25 10 16 0 25 6 25 15 0 10 11 15 35 15
19 0 35 5 35 10 0 6 23 10 50 10 28 0 50 5 50 10 0 6 30 10 70 10 40 0 70 -4
70 -10 0 -5 18 -10 40 -10 22 0 40 -4 40 -10 0 -5 9 -10 20 -10 11 0 20 -7 20
-15 0 -8 5 -15 11 -15 14 0 39 -25 39 -39 0 -6 5 -11 10 -11 14 0 60 -46 60
-60 0 -5 7 -10 15 -10 9 0 15 -9 15 -21 0 -22 22 -49 39 -49 6 0 11 -11 11
-25 0 -14 5 -25 10 -25 6 0 10 -9 10 -21 0 -22 22 -49 39 -49 6 0 11 -9 11
-21 0 -22 22 -49 39 -49 6 0 11 -10 11 -23 0 -12 9 -29 20 -37 11 -8 20 -20
20 -27 0 -7 5 -13 11 -13 14 0 39 -25 39 -39 0 -6 5 -11 10 -11 19 0 60 -48
60 -70 0 -11 7 -20 15 -20 8 0 15 -5 15 -11 0 -11 25 -39 35 -39 8 0 35 -27
35 -35 0 -10 28 -35 39 -35 6 0 11 -5 11 -11 0 -11 25 -39 35 -39 8 0 35 -27
35 -35 0 -10 28 -35 39 -35 6 0 11 -7 11 -15 0 -9 9 -15 25 -15 14 0 25 -4 25
-10 0 -5 9 -10 20 -10 11 0 20 -4 20 -10 0 -5 11 -10 25 -10 16 0 25 -6 25
-15 0 -10 11 -15 35 -15 19 0 35 -4 35 -10 0 -5 18 -10 40 -10 29 0 40 -4 40
-15 0 -12 14 -15 70 -15 40 0 70 -4 70 -10 0 -6 55 -10 145 -10 90 0 145 4
145 10 0 6 20 10 45 10 33 0 45 4 45 15 0 11 11 15 40 15 22 0 40 5 40 10 0 6
9 10 20 10 11 0 20 7 20 15 0 9 9 15 25 15 14 0 25 5 25 10 0 6 7 10 15 10 8
0 15 5 15 10 0 6 9 10 20 10 11 0 20 7 20 15 0 8 7 15 15 15 8 0 15 5 15 10 0
6 11 10 25 10 14 0 25 5 25 11 0 17 27 39 49 39 12 0 21 5 21 10 0 6 16 10 35
10 24 0 35 5 35 15 0 11 12 15 50 15 28 0 50 5 50 10 0 6 33 10 80 10 64 0 80
3 80 15 0 11 12 15 50 15 28 0 50 5 50 10 0 6 11 10 25 10 14 0 25 5 25 10 0
6 11 10 25 10 16 0 25 6 25 15 0 8 9 15 20 15 11 0 20 5 20 10 0 6 11 10 25
10 16 0 25 6 25 15 0 9 9 15 25 15 14 0 25 5 25 10 0 6 11 10 25 10 14 0 25 5
25 10 0 6 11 10 25 10 16 0 25 6 25 15 0 8 9 15 20 15 11 0 20 5 20 10 0 6 7
10 15 10 8 0 15 7 15 15 0 9 9 15 25 15 14 0 25 5 25 10 0 6 9 10 20 10 11 0
20 5 20 10 0 6 7 10 15 10 8 0 15 7 15 15 0 9 9 15 21 15 19 0 49 21 49 35 0
8 27 35 35 35 14 0 35 30 35 49 0 12 6 21 15 21 8 0 15 7 15 15 0 8 5 15 10
15 6 0 10 9 10 20 0 11 5 20 10 20 6 0 10 18 10 40 0 29 4 40 15 40 11 0 15
12 15 45 0 25 5 45 10 45 6 0 10 32 10 75 0 60 3 75 15 75 13 0 15 21 15 130
0 80 4 130 10 130 6 0 10 58 10 155 0 97 4 155 10 155 6 0 10 32 10 75 0 60 3
75 15 75 10 0 15 11 15 35 0 19 5 35 10 35 6 0 10 11 10 25 0 16 6 25 15 25 8
0 15 9 15 20 0 11 5 20 10 20 6 0 10 5 10 11 0 17 27 39 49 39 12 0 21 6 21
15 0 9 9 15 25 15 14 0 25 5 25 10 0 6 50 10 130 10 80 0 130 -4 130 -10 0 -5
18 -10 40 -10 29 0 40 -4 40 -15 0 -10 11 -15 35 -15 19 0 35 -4 35 -10 0 -5
11 -10 25 -10 16 0 25 -6 25 -15 0 -8 9 -15 20 -15 11 0 20 -4 20 -10 0 -5 11
-10 25 -10 14 0 25 -4 25 -10 0 -5 16 -10 35 -10 24 0 35 -5 35 -15 0 -11 11
-15 40 -15 22 0 40 -4 40 -10 0 -5 16 -10 35 -10 24 0 35 -5 35 -15 0 -12 13
-15 60 -15 33 0 60 -4 60 -10 0 -6 27 -10 60 -10 33 0 60 -4 60 -10 0 -5 16
-10 35 -10 24 0 35 -5 35 -15 0 -10 11 -15 35 -15 19 0 35 -4 35 -10 0 -5 16
-10 35 -10 24 0 35 -5 35 -15 0 -9 9 -15 25 -15 14 0 25 -4 25 -10 0 -5 16
-10 35 -10 19 0 35 -4 35 -10 0 -5 18 -10 40 -10 29 0 40 -4 40 -15 0 -8 9
-15 20 -15 11 0 20 -4 20 -10 0 -5 11 -10 25 -10 16 0 25 -6 25 -15 0 -10 11
-15 35 -15 19 0 35 -4 35 -10 0 -5 11 -10 25 -10 14 0 25 -4 25 -10 0 -5 11
-10 25 -10 16 0 25 -6 25 -15 0 -9 9 -15 25 -15 14 0 25 -4 25 -10 0 -5 16
-10 35 -10 24 0 35 -5 35 -15 0 -9 9 -15 25 -15 14 0 25 -4 25 -10 0 -5 20
-10 45 -10 25 0 45 -4 45 -10 0 -5 23 -10 50 -10 38 0 50 -4 50 -15 0 -11 12
-15 50 -15 28 0 50 -4 50 -10 0 -5 20 -10 45 -10 33 0 45 -4 45 -15 0 -10 11
-15 35 -15 19 0 35 -4 35 -10 0 -5 18 -10 40 -10 22 0 40 -4 40 -10 0 -5 9
-10 20 -10 11 0 20 -7 20 -15 0 -9 9 -15 25 -15 14 0 25 -4 25 -10 0 -5 11
-10 25 -10 16 0 25 -6 25 -15 0 -10 11 -15 35 -15 19 0 35 -4 35 -10 0 -5 11
-10 25 -10 14 0 25 -4 25 -10 0 -5 16 -10 35 -10 24 0 35 -5 35 -15 0 -10 11
-15 35 -15 19 0 35 -4 35 -10 0 -5 23 -10 50 -10 38 0 50 -4 50 -15 0 -13 32
-15 230 -15 198 0 230 2 230 15 0 12 13 15 60 15 33 0 60 4 60 10 0 6 50 10
130 10 80 0 130 -4 130 -10 0 -5 11 -10 25 -10 16 0 25 -6 25 -15 0 -9 9 -15
25 -15 14 0 25 -4 25 -10 0 -5 9 -10 20 -10 11 0 20 -4 20 -10 0 -5 7 -10 15
-10 8 0 15 -7 15 -15 0 -9 9 -15 21 -15 22 0 49 -22 49 -39 0 -6 10 -11 23
-11 12 0 29 -9 37 -20 9 -13 26 -20 47 -20 23 0 33 -5 33 -15 0 -11 12 -15 50
-15 28 0 50 -4 50 -10 0 -6 38 -10 95 -10 57 0 95 4 95 10 0 6 23 10 50 10 38
0 50 4 50 15 0 9 9 15 25 15 14 0 25 5 25 10 0 6 9 10 20 10 11 0 20 5 20 10
0 6 11 10 25 10 16 0 25 6 25 15 0 8 5 15 11 15 11 0 39 25 39 35 0 8 27 35
35 35 10 0 35 28 35 39 0 6 7 11 15 11 9 0 15 9 15 25 0 14 5 25 10 25 6 0 10
9 10 20 0 11 5 20 10 20 6 0 10 18 10 40 0 29 4 40 15 40 11 0 15 12 15 45 0
25 5 45 10 45 6 0 10 55 10 145 0 90 -4 145 -10 145 -6 0 -10 67 -10 180 0
153 -2 180 -15 180 -13 0 -15 29 -15 205 0 130 -4 205 -10 205 -6 0 -10 42
-10 105 0 63 -4 105 -10 105 -6 0 -10 43 -10 110 0 67 4 110 10 110 6 0 10 35
10 85 0 50 4 85 10 85 6 0 10 27 10 60 0 47 3 60 15 60 12 0 15 14 15 70 0 40
4 70 10 70 6 0 10 75 10 205 0 176 2 205 15 205 10 0 15 11 15 35 0 19 5 35
10 35 6 0 10 11 10 25 0 14 5 25 10 25 6 0 10 11 10 25 0 14 5 25 11 25 14 0
39 25 39 39 0 6 6 11 13 11 7 0 19 9 27 20 8 11 25 20 37 20 14 0 23 6 23 15
0 10 11 15 35 15 19 0 35 5 35 10 0 6 23 10 50 10 38 0 50 4 50 15 0 11 12 15
45 15 25 0 45 5 45 10 0 6 16 10 35 10 19 0 35 5 35 10 0 6 18 10 40 10 29 0
40 4 40 15 0 11 12 15 45 15 25 0 45 5 45 10 0 6 52 10 135 10 83 0 135 -4
135 -10 0 -5 9 -10 20 -10 11 0 20 -7 20 -15 0 -8 6 -15 13 -15 7 0 19 -9 27
-20 8 -11 20 -20 27 -20 7 0 13 -7 13 -15 0 -8 5 -15 10 -15 6 0 10 -11 10
-25 0 -14 5 -25 10 -25 6 0 10 -20 10 -45 0 -33 4 -45 15 -45 12 0 15 -17 15
-95 0 -57 4 -95 10 -95 6 0 10 -55 10 -145 0 -90 -4 -145 -10 -145 -5 0 -10
-7 -10 -15 0 -8 5 -15 10 -15 6 0 10 -127 10 -360 0 -313 2 -360 15 -360 13 0
15 -40 15 -300 0 -193 4 -300 10 -300 6 0 10 -27 10 -60 0 -33 4 -60 10 -60 6
0 10 -20 10 -45 0 -33 4 -45 15 -45 11 0 15 -12 15 -50 0 -27 5 -50 10 -50 6
0 10 -16 10 -35 0 -24 5 -35 15 -35 9 0 15 -9 15 -25 0 -14 5 -25 10 -25 6 0
10 -11 10 -25 0 -14 5 -25 10 -25 6 0 10 -9 10 -20 0 -11 7 -20 15 -20 8 0 15
-5 15 -11 0 -14 25 -39 39 -39 6 0 11 -5 11 -11 0 -16 26 -39 45 -39 19 0 45
-23 45 -39 0 -6 11 -11 25 -11 14 0 25 -4 25 -10 0 -5 16 -10 35 -10 24 0 35
-5 35 -15 0 -12 13 -15 60 -15 33 0 60 -4 60 -10 0 -5 23 -10 50 -10 28 0 50
5 50 10 0 6 27 10 60 10 47 0 60 3 60 15 0 10 11 15 35 15 19 0 35 5 35 10 0
6 11 10 25 10 14 0 25 5 25 11 0 16 26 39 45 39 19 0 45 23 45 39 0 6 5 11 11
11 17 0 39 27 39 49 0 12 5 21 11 21 17 0 39 27 39 49 0 12 5 21 10 21 6 0 10
11 10 25 0 16 6 25 15 25 9 0 15 9 15 25 0 14 5 25 10 25 6 0 10 16 10 35 0
24 5 35 15 35 10 0 15 11 15 35 0 19 5 35 10 35 6 0 10 27 10 60 0 33 4 60 10
60 6 0 10 27 10 60 0 47 3 60 15 60 12 0 15 15 15 75 0 43 4 75 10 75 6 0 10
33 10 80 0 64 3 80 15 80 13 0 15 56 15 445 0 290 3 445 10 445 6 0 10 47 10
120 0 73 4 120 10 120 6 0 10 43 10 110 0 91 3 110 15 110 13 0 15 41 15 310
0 200 4 310 10 310 6 0 10 27 10 60 0 47 3 60 15 60 9 0 15 9 15 25 0 14 5 25
10 25 6 0 10 9 10 21 0 22 22 49 39 49 6 0 11 5 11 11 0 14 25 39 39 39 6 0
11 5 11 10 0 6 9 10 20 10 11 0 20 7 20 15 0 11 11 15 40 15 22 0 40 5 40 10
0 6 20 10 45 10 33 0 45 4 45 15 0 12 16 15 85 15 50 0 85 4 85 10 0 6 87 10
240 10 153 0 240 4 240 10 0 6 27 10 60 10 47 0 60 3 60 15 0 11 12 15 50 15
28 0 50 5 50 10 0 6 16 10 35 10 24 0 35 5 35 15 0 13 20 15 120 15 100 0 120
-2 120 -15 0 -9 9 -15 21 -15 22 0 49 -22 49 -39 0 -6 5 -11 10 -11 6 0 10 -9
10 -20 0 -11 7 -20 15 -20 9 0 15 -9 15 -25 0 -14 5 -25 10 -25 6 0 10 -132
10 -375 0 -327 2 -375 15 -375 12 0 15 -18 15 -105 0 -63 4 -105 10 -105 6 0
10 -35 10 -85 0 -50 4 -85 10 -85 6 0 10 -27 10 -60 0 -47 3 -60 15 -60 11 0
15 -12 15 -50 0 -27 5 -50 10 -50 6 0 10 -16 10 -35 0 -24 5 -35 15 -35 11 0
15 -12 15 -45 0 -25 5 -45 10 -45 6 0 10 -18 10 -40 0 -22 5 -40 10 -40 6 0
10 -16 10 -35 0 -24 5 -35 15 -35 10 0 15 -11 15 -35 0 -19 5 -35 10 -35 6 0
10 -11 10 -25 0 -16 6 -25 15 -25 10 0 15 -11 15 -35 0 -19 5 -35 10 -35 6 0
10 -11 10 -25 0 -14 5 -25 10 -25 6 0 10 -11 10 -25 0 -16 6 -25 15 -25 10 0
15 -10 15 -31 0 -30 19 -59 39 -59 6 0 11 -11 11 -25 0 -14 5 -25 10 -25 6 0
10 -11 10 -25 0 -14 5 -25 10 -25 6 0 10 -11 10 -25 0 -14 5 -25 11 -25 17 0
39 -27 39 -49 0 -12 5 -21 11 -21 16 0 39 -26 39 -45 0 -19 23 -45 39 -45 6 0
11 -5 11 -11 0 -14 25 -39 39 -39 6 0 11 -10 11 -23 0 -12 9 -29 20 -37 11 -8
20 -20 20 -27 0 -7 5 -13 11 -13 14 0 39 -25 39 -39 0 -6 5 -11 11 -11 16 0
39 -26 39 -45 0 -19 23 -45 39 -45 6 0 11 -5 11 -11 0 -11 25 -39 35 -39 8 0
35 -27 35 -35 0 -10 28 -35 39 -35 6 0 11 -5 11 -11 0 -16 26 -39 45 -39 19 0
45 -23 45 -39 0 -6 5 -11 11 -11 14 0 39 -25 39 -39 0 -6 5 -11 10 -11 14 0
60 -46 60 -60 0 -5 11 -10 25 -10 14 0 25 -4 25 -10 0 -5 7 -10 15 -10 8 0 15
-5 15 -10 0 -19 48 -60 70 -60 11 0 20 -7 20 -15 0 -8 7 -15 15 -15 8 0 15 -4
15 -10 0 -5 9 -10 20 -10 11 0 20 -7 20 -15 0 -9 9 -15 25 -15 14 0 25 -4 25
-10 0 -5 11 -10 25 -10 14 0 25 -4 25 -10 0 -5 11 -10 25 -10 16 0 25 -6 25
-15 0 -9 9 -15 25 -15 14 0 25 -4 25 -10 0 -5 16 -10 35 -10 24 0 35 -5 35
-15 0 -9 9 -15 25 -15 14 0 25 -4 25 -10 0 -5 16 -10 35 -10 19 0 35 -4 35
-10 0 -5 20 -10 45 -10 33 0 45 -4 45 -15 0 -11 12 -15 50 -15 28 0 50 -4 50
-10 0 -5 23 -10 50 -10 38 0 50 -4 50 -15 0 -12 16 -15 80 -15 47 0 80 -4 80
-10 0 -6 92 -10 255 -10 163 0 255 4 255 10 0 6 42 10 105 10 87 0 105 3 105
15 0 12 13 15 60 15 33 0 60 4 60 10 0 6 23 10 50 10 38 0 50 4 50 15 0 10 11
15 35 15 19 0 35 5 35 10 0 6 16 10 35 10 19 0 35 5 35 10 0 6 18 10 40 10 29
0 40 4 40 15 0 10 11 15 35 15 19 0 35 5 35 10 0 6 16 10 35 10 24 0 35 5 35
15 0 10 11 15 35 15 19 0 35 5 35 10 0 6 16 10 35 10 19 0 35 5 35 10 0 6 11
10 25 10 16 0 25 6 25 15 0 9 9 15 25 15 14 0 25 5 25 10 0 6 11 10 25 10 14
0 25 5 25 11 0 16 26 39 45 39 19 0 45 23 45 39 0 6 7 11 15 11 8 0 15 5 15
10 0 6 11 10 25 10 14 0 25 5 25 10 0 14 46 60 60 60 5 0 10 7 10 15 0 9 9 15
21 15 19 0 49 21 49 35 0 8 27 35 35 35 10 0 35 28 35 39 0 6 9 11 21 11 22 0
49 22 49 39 0 6 6 11 13 11 7 0 19 9 27 20 8 11 20 20 27 20 7 0 13 6 13 13 0
7 9 19 20 27 11 8 20 20 20 27 0 7 6 13 13 13 7 0 19 9 27 20 8 11 20 20 27
20 7 0 13 6 13 13 0 7 9 19 20 27 11 8 20 20 20 27 0 7 6 13 13 13 7 0 19 9
27 20 8 11 20 20 27 20 7 0 13 6 13 13 0 7 9 19 20 27 11 8 20 20 20 27 0 7 7
13 15 13 8 0 15 9 15 20 0 11 5 20 10 20 6 0 10 7 10 15 0 8 5 15 11 15 16 0
39 26 39 45 0 19 23 45 39 45 6 0 11 11 11 25 0 14 5 25 10 25 6 0 10 11 10
25 0 16 6 25 15 25 9 0 15 9 15 25 0 14 5 25 10 25 6 0 10 16 10 35 0 19 5 35
10 35 6 0 10 27 10 60 0 58 1 60 25 60 14 0 42 8 63 19 20 10 86 28 147 40 77
16 119 29 142 47 69 52 191 258 213 359 21 94 -8 181 -84 254 -50 49 -47 72
18 135 68 65 82 107 76 231 -2 50 -4 128 -4 175 1 118 14 140 108 184 158 75
259 271 243 475 -7 99 -84 250 -182 359 -41 46 -76 91 -76 100 -2 31 2 52 17
80 23 44 17 94 -22 174 -31 64 -34 79 -29 122 4 32 20 72 43 110 36 58 37 62
36 155 -1 79 -6 109 -29 171 -46 124 -125 272 -162 305 -27 24 -35 41 -42 85
-6 35 -15 58 -26 65 -10 5 -25 19 -34 29 -122 145 -189 171 -368 140 -53 -9
-122 -14 -152 -12 -47 4 -59 10 -87 40 -21 23 -34 50 -39 79 -4 24 -17 67 -30
95 -37 83 -78 117 -266 215 -111 59 -332 63 -429 9 -19 -11 -54 -30 -77 -41
l-41 -22 -41 21 c-23 12 -60 25 -83 28 -54 9 -209 75 -219 94 -5 8 -15 32 -23
52 -13 34 -18 37 -73 45 -56 8 -833 9 -941 2 -62 -5 -82 12 -82 68 0 20 -8 41
-21 54 -20 20 -29 20 -262 17 -133 -2 -253 -5 -267 -6z m49 -1836 c74 -107
184 -173 307 -183 88 -8 155 11 257 69 76 44 100 53 151 56 42 3 74 -1 100
-12 48 -20 82 -20 136 -1 64 23 86 12 137 -69 94 -147 136 -184 276 -242 143
-60 168 -104 147 -265 -14 -104 -14 -104 24 -195 20 -47 27 -86 32 -172 5 -82
12 -120 26 -142 20 -34 71 -60 115 -60 15 0 47 -9 71 -20 33 -15 47 -29 62
-62 11 -24 20 -57 20 -74 0 -73 63 -223 121 -289 50 -57 106 -45 198 40 50 46
95 59 144 43 42 -15 57 -55 57 -148 0 -90 -3 -96 -89 -152 -60 -40 -94 -94
-141 -225 -93 -256 -172 -409 -295 -572 -89 -117 -264 -290 -325 -321 -24 -13
-60 -35 -80 -51 -44 -35 -337 -154 -415 -168 -116 -22 -237 -24 -320 -8 -44 9
-115 16 -158 16 -96 1 -147 15 -189 53 -18 17 -53 41 -78 56 -25 14 -67 43
-95 63 -27 20 -106 65 -175 99 -140 70 -189 101 -274 174 -128 110 -336 393
-336 458 0 19 -18 79 -41 133 -34 82 -43 116 -53 220 -12 109 -16 127 -42 161
-29 37 -29 39 -26 153 5 181 -3 236 -43 280 -19 21 -38 48 -43 62 -5 13 -8
134 -7 269 1 215 4 256 23 333 31 125 54 160 134 210 41 25 58 58 68 129 11
78 44 113 114 122 25 3 65 8 89 11 57 7 98 34 133 86 16 24 47 56 69 72 69 50
160 105 172 106 7 1 26 -19 42 -43z m-2396 -2 c141 -7 146 -10 166 -81 12 -42
-2 -59 -62 -77 -52 -16 -87 -35 -168 -91 l-43 -30 -170 3 c-130 2 -206 -2
-320 -18 -82 -11 -182 -20 -223 -20 -48 0 -85 -6 -104 -16 -24 -12 -60 -15
-178 -13 -145 2 -149 2 -182 -23 -68 -51 -92 -58 -202 -58 -132 0 -132 -1
-140 -135 -4 -55 -11 -143 -17 -195 -6 -58 -7 -226 -4 -430 7 -368 -9 -649
-47 -848 -31 -162 -39 -290 -27 -442 12 -155 5 -548 -12 -660 -7 -44 -18 -78
-26 -83 -35 -20 -45 -63 -38 -174 6 -92 4 -120 -15 -193 -12 -47 -32 -105 -44
-130 -19 -38 -27 -45 -55 -48 -53 -5 -62 10 -62 103 0 88 -24 188 -63 258 -20
35 -20 39 -5 65 13 21 18 68 24 189 6 144 5 167 -14 229 -16 54 -21 110 -26
259 -3 105 -9 268 -12 364 -5 115 -3 217 6 302 11 115 11 138 -5 219 -15 78
-16 104 -6 202 14 134 5 239 -39 464 -19 102 -39 173 -60 218 -35 73 -33 99
10 153 25 32 25 47 -1 89 -13 22 -42 44 -87 66 -58 29 -75 33 -147 32 -77 0
-84 -2 -206 -61 -150 -72 -201 -114 -243 -203 l-31 -65 -105 -27 c-58 -16
-149 -32 -203 -37 -80 -8 -105 -14 -143 -38 -123 -76 -125 -77 -214 -81 -98
-5 -195 10 -222 35 -21 19 -23 58 -4 92 31 55 191 180 354 277 92 55 201 125
243 156 67 50 88 60 165 78 49 12 180 48 292 80 111 33 260 71 330 85 70 14
177 42 237 61 130 42 210 59 365 79 63 8 185 28 270 44 212 41 284 48 585 62
143 6 303 15 355 19 94 8 324 6 573 -6z m-4467 -280 c95 -45 161 -255 110
-352 -21 -41 -18 -74 10 -86 55 -24 33 -360 -28 -433 -9 -11 -9 -17 3 -24 8
-5 19 -9 25 -9 5 0 20 -9 31 -19 19 -18 21 -28 16 -124 -4 -69 0 -151 12 -246
14 -111 16 -173 10 -279 -10 -186 -10 -264 0 -348 l8 -72 -42 -44 -41 -45 0
-387 c0 -321 3 -393 15 -423 21 -50 21 -366 0 -403 -22 -38 -18 -69 14 -119
36 -56 52 -142 44 -244 -3 -43 0 -102 7 -141 11 -58 10 -69 -4 -91 -19 -29
-60 -48 -86 -40 -20 6 -36 42 -45 101 -3 22 -15 55 -26 72 -32 54 -66 69 -216
98 -22 4 -23 9 -23 92 0 49 -11 160 -25 248 -47 305 -60 625 -30 709 18 51 18
100 -1 150 -11 30 -53 309 -54 357 0 4 9 12 21 18 27 15 42 2 81 -67 46 -82
84 -70 103 30 5 25 1 48 -13 80 -23 52 -59 75 -131 86 l-45 6 -29 145 c-35
180 -41 355 -14 441 16 55 16 58 -3 115 -50 144 -62 236 -67 521 l-5 271 26
35 c15 19 44 81 64 138 42 116 130 262 171 284 35 19 115 19 157 -1z m5782
-177 c40 -16 77 -37 82 -47 7 -13 7 -57 0 -131 -5 -62 -12 -246 -16 -408 -12
-531 25 -784 156 -1071 26 -58 62 -141 79 -185 65 -170 158 -302 336 -481 87
-88 114 -108 210 -158 101 -53 138 -76 266 -164 25 -17 122 -61 215 -97 152
-60 223 -82 459 -146 164 -45 329 -33 488 35 94 41 100 42 117 21 46 -56 259
44 330 155 22 34 45 56 77 71 25 12 61 36 80 52 46 40 144 172 189 254 73 132
172 251 223 268 28 9 68 -15 125 -75 62 -64 77 -72 151 -79 56 -6 60 -8 63
-32 2 -20 -9 -41 -42 -80 -25 -30 -59 -78 -77 -107 -17 -30 -47 -68 -67 -85
-19 -18 -89 -84 -157 -147 -184 -175 -243 -223 -330 -277 -51 -32 -93 -67
-117 -99 -33 -43 -49 -53 -130 -86 -82 -33 -103 -38 -179 -38 -82 0 -88 -2
-130 -34 -102 -77 -176 -100 -397 -121 -390 -36 -641 -8 -929 104 -169 66
-273 127 -308 181 -11 17 -56 59 -99 93 -119 93 -148 120 -284 266 -261 281
-363 458 -491 854 -113 347 -147 605 -137 1020 13 504 33 723 78 829 l20 46
37 -36 c22 -22 67 -48 109 -65z m-9268 17 c47 -9 126 -26 175 -39 50 -13 164
-31 255 -40 300 -30 344 -50 493 -231 53 -66 115 -141 137 -167 36 -44 70
-125 70 -167 0 -68 -53 -181 -246 -526 -28 -50 -48 -64 -154 -105 -46 -17 -97
-45 -114 -60 -17 -16 -48 -43 -69 -60 -21 -18 -55 -61 -76 -98 -22 -36 -50
-76 -63 -87 -41 -39 -255 -173 -462 -291 -110 -63 -207 -120 -213 -125 -7 -6
-13 -21 -13 -33 0 -29 14 -39 73 -54 27 -6 94 -34 149 -62 102 -51 205 -81
250 -72 14 3 42 -4 64 -15 60 -31 138 -50 259 -66 100 -13 120 -20 231 -75 67
-34 137 -64 155 -67 19 -4 48 -19 64 -34 51 -47 70 -53 126 -40 108 26 220
-15 299 -110 43 -52 85 -80 117 -80 29 0 341 -114 428 -156 67 -33 83 -45 100
-79 l20 -40 95 -6 c108 -8 144 -18 215 -65 57 -38 85 -71 142 -169 23 -38 66
-95 97 -126 33 -34 56 -66 56 -78 0 -30 -22 -71 -55 -101 -25 -24 -33 -25
-168 -28 -172 -4 -214 6 -240 58 -13 27 -16 48 -11 93 7 63 -7 79 -22 25 -8
-29 -17 -35 -67 -52 -103 -33 -133 -7 -147 131 -5 48 -10 89 -10 89 0 1 -11
-1 -24 -3 -35 -7 -120 13 -189 44 -71 32 -110 33 -140 5 -13 -12 -31 -22 -39
-22 -9 0 -19 -9 -23 -19 -8 -25 -70 -54 -104 -48 -36 7 -179 67 -221 94 -40
24 -75 77 -66 99 4 10 22 14 63 14 32 0 64 4 72 9 62 39 -158 216 -331 266
-66 19 -133 17 -133 -4 0 -14 106 -85 180 -121 22 -10 57 -22 77 -25 38 -6 93
-56 85 -79 -2 -7 -37 -12 -88 -14 -46 -1 -94 -7 -106 -14 -29 -15 -85 1 -172
49 -117 63 -392 141 -542 152 -112 9 -138 20 -264 115 -57 43 -99 67 -123 71
-150 22 -324 62 -458 105 -198 64 -295 78 -444 62 -127 -13 -173 -30 -193 -69
-8 -15 -26 -104 -41 -198 -14 -93 -38 -213 -52 -265 -57 -213 -76 -350 -99
-720 -18 -294 -33 -434 -50 -477 -14 -33 -22 -37 -96 -46 -20 -3 -76 -23 -125
-44 -68 -29 -104 -53 -155 -100 -57 -54 -72 -63 -103 -63 -28 0 -45 7 -67 29
-16 16 -29 38 -30 48 -6 151 -4 449 3 483 5 25 19 61 32 81 21 30 22 38 11 60
-7 13 -16 42 -20 64 -4 22 -11 48 -17 59 -12 22 -17 96 -22 320 -3 177 -2 173
-84 218 -35 19 -51 60 -32 83 7 8 39 29 72 47 71 38 104 77 158 191 52 109 87
139 169 145 55 4 58 6 84 47 15 23 27 54 27 68 0 31 -42 83 -74 91 -13 3 -38
22 -56 42 -38 43 -36 61 17 147 25 41 52 69 89 93 64 41 80 63 87 124 4 25 29
117 57 205 28 88 60 198 70 245 32 146 71 448 77 600 5 141 5 146 -19 180 -39
57 -66 65 -218 65 -217 0 -308 -35 -440 -166 -80 -80 -146 -188 -170 -279 -16
-59 -22 -66 -103 -107 -62 -31 -72 -33 -98 -22 -16 6 -43 27 -59 46 -36 41
-41 100 -11 142 19 26 40 83 61 168 15 62 103 186 200 283 81 81 94 90 245
164 88 42 189 84 225 92 41 10 95 33 147 65 233 142 481 220 838 265 72 8 185
29 253 46 205 50 371 56 562 22z m-4317 -346 c58 -22 50 -118 -26 -290 -121
-273 -126 -406 -22 -628 30 -63 70 -165 89 -225 46 -143 92 -218 198 -326 79
-80 87 -92 98 -144 22 -105 57 -190 177 -425 65 -130 127 -265 137 -302 33
-123 95 -233 246 -438 63 -86 79 -116 89 -165 22 -101 77 -231 183 -429 56
-104 117 -225 135 -270 19 -45 42 -99 51 -121 25 -58 82 -143 167 -249 41 -51
75 -100 75 -109 0 -8 14 -53 31 -101 37 -101 35 -141 -12 -180 -25 -21 -41
-26 -87 -26 -31 0 -86 7 -122 16 -36 8 -88 18 -116 22 -66 10 -79 21 -115 101
-38 82 -41 130 -11 170 12 17 22 32 22 34 0 12 -48 14 -100 5 -50 -10 -66 -9
-104 6 -50 19 -96 69 -96 104 0 11 14 32 31 45 l32 24 -22 22 c-11 11 -29 21
-40 21 -10 0 -24 7 -31 14 -6 8 -27 20 -45 26 -27 9 -34 17 -40 48 -9 48 -28
84 -87 160 -48 64 -132 226 -143 279 -12 55 -37 100 -65 116 -23 14 -57 17
-203 17 l-174 0 -139 -60 c-77 -33 -164 -65 -194 -71 -156 -33 -283 -81 -330
-125 -15 -14 -63 -34 -115 -49 -106 -31 -157 -63 -181 -113 -9 -21 -65 -84
-124 -143 -94 -92 -110 -112 -124 -159 -12 -39 -30 -68 -71 -111 -49 -51 -55
-62 -55 -101 0 -67 -18 -116 -59 -162 -53 -57 -70 -95 -78 -168 -3 -35 -10
-72 -16 -83 -6 -11 -18 -49 -28 -85 -31 -114 -86 -264 -158 -427 -63 -142
-109 -269 -125 -345 -8 -37 -59 -84 -100 -92 -47 -9 -113 18 -131 55 -27 52
-19 98 35 200 119 225 258 533 312 693 46 136 69 289 50 330 -19 42 -55 57
-144 63 -46 3 -88 10 -95 15 -17 13 1 66 58 178 64 126 158 242 261 324 98 78
113 104 133 225 7 47 30 131 50 186 21 59 40 133 46 180 4 44 20 121 34 170
15 50 29 101 33 115 4 15 20 31 40 40 25 12 31 19 26 35 -35 117 -28 185 36
328 32 70 43 109 47 162 5 64 9 73 43 110 47 50 57 83 64 219 5 88 11 120 32
165 15 34 31 96 39 157 17 117 56 237 126 379 80 165 86 280 23 411 -18 38
-38 95 -44 125 -7 37 -25 75 -56 121 -35 51 -47 77 -48 107 -1 38 5 46 84 127
111 113 154 144 197 144 62 0 123 -55 123 -111 0 -38 26 -59 62 -48 43 12 63
33 78 82 14 49 60 115 122 174 56 54 85 60 161 31z m-3047 -403 c90 -53 206
-193 246 -297 10 -27 18 -70 18 -96 0 -41 -5 -53 -31 -78 -48 -44 -67 -98 -78
-218 -11 -112 -29 -167 -65 -191 -28 -20 -80 -19 -98 3 -21 24 -40 156 -32
223 l6 55 -68 39 c-44 25 -101 72 -156 128 l-88 90 -46 -6 c-98 -11 -298 -137
-407 -258 -57 -62 -120 -160 -146 -225 -7 -18 -26 -45 -42 -60 -27 -26 -38
-29 -97 -30 -41 -1 -80 -7 -99 -18 -44 -22 -107 -114 -204 -296 -98 -186 -182
-317 -209 -325 -11 -4 -27 -19 -34 -34 -19 -35 -22 -162 -5 -230 17 -73 0
-168 -47 -269 -23 -51 -38 -101 -43 -148 -11 -90 -41 -158 -128 -280 -37 -53
-73 -103 -80 -112 -6 -10 -13 -68 -15 -133 -4 -99 -8 -123 -31 -170 -32 -67
-52 -205 -43 -303 9 -91 38 -211 76 -310 17 -42 30 -85 30 -94 0 -9 38 -56 84
-103 78 -81 88 -88 169 -117 172 -62 282 -64 347 -6 52 48 77 54 209 54 141 0
174 10 206 60 13 21 34 40 47 43 47 11 406 155 487 196 46 24 134 78 195 121
61 43 152 104 201 136 67 44 94 68 107 96 14 28 27 40 65 53 191 67 208 78
237 146 17 41 129 149 279 270 l98 79 88 0 c73 0 93 -3 114 -20 30 -24 40 -60
27 -95 -14 -37 -71 -105 -87 -105 -28 0 -90 -40 -138 -90 -27 -29 -102 -94
-165 -146 -63 -51 -162 -132 -219 -179 -64 -52 -143 -105 -204 -136 -67 -34
-104 -60 -115 -79 -11 -18 -31 -32 -57 -40 -52 -16 -130 -55 -240 -123 -50
-30 -110 -64 -135 -77 -25 -13 -79 -49 -120 -81 -41 -31 -101 -71 -133 -88
-32 -17 -104 -64 -160 -105 -156 -113 -311 -190 -430 -215 -72 -14 -128 -34
-215 -77 l-117 -57 -230 -7 c-262 -8 -335 -1 -421 39 -51 24 -67 38 -101 89
-34 52 -63 113 -78 168 -2 6 -32 27 -67 47 -106 59 -123 88 -120 211 1 49 -3
96 -8 106 -5 9 -24 23 -42 30 -44 18 -68 39 -68 61 0 13 12 18 58 24 67 8 125
33 130 57 2 9 -11 32 -29 52 l-32 37 6 87 c16 227 20 255 38 273 10 10 23 35
28 56 6 21 26 55 44 75 39 43 53 84 62 188 8 84 28 134 80 198 44 54 65 126
65 220 0 77 21 133 55 145 20 8 41 52 86 185 63 183 108 291 154 367 23 39 73
124 110 190 87 155 134 223 211 312 47 55 67 88 84 140 36 107 44 118 200 272
81 81 154 161 164 178 9 18 29 39 44 47 16 8 88 78 161 155 114 121 142 145
200 172 36 17 77 38 91 46 124 72 253 114 405 132 106 12 159 6 211 -24z
m-4406 -121 c49 -25 140 -104 156 -135 22 -44 11 -88 -35 -147 -34 -43 -53
-55 -141 -92 -66 -28 -115 -56 -138 -78 -74 -74 -144 -205 -390 -727 -60 -128
-71 -160 -76 -221 -3 -39 -13 -84 -21 -100 -8 -16 -15 -36 -15 -44 0 -9 -9
-34 -20 -55 -12 -22 -34 -107 -51 -190 -21 -106 -41 -175 -68 -235 -36 -78
-39 -94 -44 -200 -4 -79 -20 -183 -50 -330 -25 -118 -50 -249 -57 -290 -7 -41
-30 -122 -52 -180 -26 -68 -43 -132 -48 -180 -4 -41 -15 -104 -25 -140 -15
-57 -16 -73 -5 -128 12 -62 12 -65 -16 -115 -46 -85 -85 -268 -94 -447 -4 -85
-15 -209 -25 -275 -25 -171 -23 -274 6 -355 20 -55 24 -82 23 -176 -1 -62 -7
-121 -13 -133 -7 -11 -40 -34 -74 -50 -38 -17 -99 -61 -157 -113 -53 -46 -110
-90 -128 -97 -43 -18 -108 -9 -139 21 -27 26 -27 22 2 188 21 118 24 375 6
440 -25 87 -53 98 -141 50 -111 -59 -190 -31 -190 69 0 66 -32 149 -81 212
-30 37 -44 67 -54 117 -15 70 -71 213 -99 253 -9 13 -16 37 -16 53 0 16 -9 39
-20 51 -12 13 -23 45 -29 89 -5 37 -16 74 -23 83 -7 9 -26 43 -43 77 -22 45
-39 65 -65 78 -70 35 -149 156 -180 276 -9 34 -21 50 -60 78 -62 44 -73 75
-64 180 4 45 4 99 0 119 -9 46 -66 109 -126 140 -26 13 -54 35 -64 49 -9 14
-52 103 -96 198 -44 95 -104 213 -134 263 -30 49 -66 124 -80 165 -33 100 -98
238 -120 252 -37 25 -92 -27 -112 -107 -9 -33 -22 -70 -30 -82 -8 -12 -14 -33
-14 -46 0 -27 -23 -60 -106 -150 -60 -65 -63 -67 -111 -67 -61 0 -78 16 -94
89 -15 72 -6 127 35 208 48 96 92 226 105 311 13 85 30 124 66 149 14 10 35
25 46 33 21 16 32 55 48 167 24 167 123 247 306 246 94 0 161 -24 192 -69 35
-51 108 -187 138 -259 20 -46 48 -88 83 -125 32 -33 52 -63 52 -78 0 -40 40
-143 78 -200 57 -84 72 -115 72 -145 0 -17 15 -48 39 -80 59 -78 87 -140 132
-298 48 -169 71 -217 137 -293 37 -42 54 -72 67 -119 19 -67 59 -151 153 -320
59 -106 91 -181 112 -264 6 -24 35 -79 65 -122 30 -44 60 -101 66 -126 7 -26
38 -87 71 -136 43 -65 71 -125 108 -226 43 -122 66 -163 91 -163 27 0 48 65
88 285 7 38 22 75 42 103 32 44 32 45 25 134 -5 79 -1 111 34 291 25 123 50
220 64 247 13 26 25 71 29 108 3 34 10 69 16 76 6 7 15 33 20 57 5 24 26 100
46 169 33 111 38 143 45 280 6 119 14 176 34 245 14 49 35 157 46 240 21 159
33 206 74 297 14 32 45 132 70 223 45 172 51 184 144 301 44 55 87 148 131
283 17 52 56 114 125 199 34 42 82 106 108 142 25 36 72 94 105 130 33 36 74
86 91 112 66 97 156 127 242 82z m798 -563 c52 -27 127 -108 151 -161 18 -41
19 -54 9 -160 -10 -118 -5 -329 12 -454 6 -39 14 -165 20 -281 10 -213 23
-297 61 -385 19 -44 19 -50 5 -72 -31 -47 -46 -138 -46 -281 l0 -138 -29 -27
c-55 -52 -56 -55 -59 -365 l-3 -288 32 -92 c32 -88 33 -99 33 -232 -1 -77 -3
-176 -5 -220 -4 -77 -3 -82 34 -147 43 -77 47 -124 17 -181 -24 -45 -25 -78
-4 -119 21 -41 22 -94 2 -114 -9 -9 -31 -19 -49 -23 -32 -6 -35 -5 -55 39 -37
80 -123 184 -163 198 -102 35 -122 63 -133 191 -5 53 -12 184 -17 291 -7 157
-13 207 -30 257 -28 84 -27 154 4 221 35 75 32 117 -16 235 -43 107 -57 196
-45 278 10 64 16 71 54 58 31 -11 62 -47 62 -72 0 -8 7 -20 15 -27 39 -32 60
54 31 124 -11 25 -24 37 -53 46 -62 20 -100 48 -119 88 -17 33 -20 73 -25 357
-9 471 -24 712 -49 792 -33 107 -25 191 25 273 11 19 26 62 33 94 13 67 34
102 135 229 77 97 95 104 165 68z"/>
<path d="M30054 10449 c-55 -5 -89 -16 -145 -45 -83 -44 -109 -78 -93 -123 8
-23 15 -26 58 -26 47 0 51 2 81 45 26 37 40 47 81 58 122 32 235 -27 297 -154
22 -47 43 -58 93 -52 37 4 42 36 19 114 -40 137 -183 204 -391 183z"/>
<path d="M31114 10384 c-78 -28 -154 -113 -154 -173 0 -30 35 -61 69 -61 26 0
31 5 43 43 17 50 52 71 145 86 99 16 155 -3 218 -73 68 -76 115 -74 115 4 0
81 -53 135 -168 170 -77 24 -207 26 -268 4z"/>
<path d="M31141 10078 c-81 -40 -177 -191 -222 -353 -18 -63 -23 -107 -23
-205 -1 -146 11 -193 58 -221 41 -25 77 -24 192 6 149 39 226 33 317 -25 26
-16 52 -30 57 -30 5 0 25 21 45 46 39 52 47 105 20 140 -9 12 -14 43 -15 89 0
110 -46 371 -76 432 -28 59 -82 106 -144 128 -62 22 -156 18 -209 -7z m204
-101 c64 -80 152 -335 161 -465 8 -121 0 -139 -70 -147 -70 -9 -144 8 -184 43
l-31 27 -4 179 c-4 172 -5 180 -26 198 -13 10 -34 18 -47 18 -16 0 -28 8 -35
24 -16 35 11 80 63 103 24 11 59 27 78 36 51 23 66 21 95 -16z"/>
<path d="M30035 10078 c-56 -19 -138 -117 -201 -238 l-29 -55 3 -210 c2 -115
8 -218 13 -227 16 -30 53 -31 140 -3 106 33 215 35 309 6 36 -12 82 -21 102
-21 56 0 67 24 74 166 8 144 -7 216 -67 316 -22 37 -53 95 -69 129 -38 81 -73
116 -134 134 -57 17 -98 18 -141 3z m142 -124 c53 -26 84 -73 93 -146 4 -35
16 -116 26 -182 22 -147 23 -146 -108 -146 -109 0 -113 5 -96 117 25 156 15
187 -69 225 -46 20 -51 33 -28 78 35 67 108 89 182 54z"/>
<path d="M32466 9196 c-3 -13 -29 -43 -56 -66 -87 -72 -99 -126 -36 -159 23
-13 30 -12 75 12 27 15 59 27 71 27 36 0 57 17 74 60 16 40 16 42 -6 71 -45
60 -67 79 -91 79 -18 0 -27 -7 -31 -24z"/>
<path d="M30649 9177 c-96 -35 -150 -67 -176 -106 -25 -37 -30 -80 -11 -99 21
-21 73 -14 99 14 46 50 97 69 184 69 100 0 142 -20 215 -104 54 -63 77 -73
105 -44 14 13 16 28 12 72 -5 53 -9 59 -66 112 -105 100 -237 131 -362 86z"/>
<path d="M30242 8748 c16 -76 50 -182 68 -218 10 -19 39 -59 63 -87 25 -29 53
-74 63 -100 21 -57 80 -147 120 -184 16 -15 56 -44 89 -64 33 -21 83 -59 111
-86 44 -41 58 -48 106 -54 60 -8 149 7 183 29 29 19 142 176 166 231 11 25 24
77 28 114 7 65 10 72 64 133 55 63 122 118 143 118 31 0 85 108 71 143 -8 21
-63 29 -101 13 -18 -8 -48 -36 -69 -64 -49 -68 -90 -94 -249 -154 -178 -68
-239 -73 -364 -28 -49 17 -120 40 -158 51 -85 24 -106 39 -228 156 -53 51
-101 93 -106 93 -6 0 -7 -15 0 -42z m386 -343 c147 -42 266 -58 369 -50 93 6
93 6 105 -19 14 -33 0 -84 -42 -147 -44 -67 -79 -83 -176 -77 -131 8 -204 58
-305 212 -32 49 -59 93 -59 98 0 12 14 10 108 -17z"/>
<path d="M19476 10025 c-35 -23 -63 -32 -262 -73 -44 -10 -92 -25 -106 -34
-31 -21 -45 -73 -53 -208 -10 -162 -25 -251 -60 -355 -31 -91 -42 -151 -76
-407 -6 -49 -15 -88 -20 -88 -11 0 -62 -101 -82 -165 -34 -108 -33 -176 3
-195 21 -11 188 9 337 40 109 23 157 24 237 5 68 -16 88 -10 111 34 15 29 74
68 135 90 42 14 135 74 180 116 19 18 85 71 147 118 217 166 301 245 333 311
18 38 50 81 84 112 65 62 80 105 74 209 -6 81 -32 141 -78 176 -17 13 -48 39
-70 57 -58 49 -177 96 -397 157 -195 53 -271 77 -345 109 -48 21 -49 21 -92
-9z"/>
<path d="M15201 8503 c-5 -10 -23 -67 -41 -128 -18 -62 -65 -182 -109 -275
-88 -186 -117 -268 -161 -455 -17 -71 -40 -168 -52 -215 -13 -54 -28 -94 -43
-110 -40 -43 -72 -129 -79 -212 -4 -43 -16 -117 -27 -165 -35 -146 -35 -157
-4 -182 53 -41 109 -24 185 53 34 36 51 46 76 46 56 0 206 72 248 119 11 11
28 21 39 21 40 0 344 73 444 106 56 19 122 34 146 34 61 0 85 27 89 100 l3 55
-47 23 c-36 16 -53 33 -69 65 -12 23 -43 74 -69 112 -68 103 -105 170 -140
260 -17 44 -48 111 -67 149 -34 67 -36 74 -39 193 -2 68 -6 128 -9 133 -3 5
-27 7 -53 4 -68 -8 -84 8 -90 85 -4 54 -8 64 -28 71 -20 8 -24 17 -24 50 0 23
-5 50 -10 61 -13 24 -56 25 -69 2z"/>
<path d="M15665 8070 c-18 -19 -18 -22 -2 -56 9 -19 25 -37 34 -41 39 -14 53
-35 53 -83 0 -41 8 -61 56 -136 57 -91 142 -258 203 -397 29 -67 33 -84 27
-127 -6 -48 -6 -50 26 -70 36 -23 79 -20 130 6 35 18 36 47 4 94 -13 19 -52
89 -86 155 -35 66 -78 142 -97 168 -46 66 -51 81 -63 203 -6 64 -15 111 -23
118 -7 6 -26 30 -41 53 -16 23 -53 63 -83 88 -63 51 -107 59 -138 25z"/>
<path d="M16252 6973 c-34 -14 -32 -40 14 -180 61 -185 91 -243 177 -339 39
-45 103 -134 141 -198 81 -135 118 -176 144 -160 9 6 18 24 20 40 2 23 -13 48
-78 129 -57 72 -87 120 -106 170 -116 309 -182 450 -240 512 -30 32 -45 37
-72 26z"/>
</g>
</svg>
